<?xml version="1.0" encoding="UTF-8"?>
<svg width="24px" height="24px" viewBox="0 0 24 24" version="1.1" xmlns="http://www.w3.org/2000/svg" xmlns:xlink="http://www.w3.org/1999/xlink">
    <title>ic/electrohogar</title>
    <g id="ic/electrohogar" stroke="none" stroke-width="1" fill="none" fill-rule="evenodd">
        <path d="M12,3.79206095 L20.5152111,10.6130214 C20.6220723,10.7004532 20.6833782,10.822922 20.6961108,10.9502481 C20.7088434,11.0775743 20.6730027,11.2097577 20.5855708,11.3166189 C20.4906063,11.4326866 20.3485587,11.5 20.1989837,11.5000002 L18.4993708,11.4986692 L18.5,20 C18.5,20.1380712 18.4440356,20.2630712 18.3535534,20.3535534 C18.2630712,20.4440356 18.1380712,20.5 18,20.5 L6,20.5 C5.86192881,20.5 5.73692881,20.4440356 5.64644661,20.3535534 C5.55596441,20.2630712 5.5,20.1380712 5.5,19.999963 L5.49937079,11.4986688 L3.80140782,11.5 C3.66333664,11.5 3.53833664,11.4440356 3.44785443,11.3535534 C3.35737223,11.2630712 3.30140782,11.1380712 3.30140782,11 C3.30140782,10.8500334 3.36872121,10.7079858 3.48478893,10.6130214 L11.6833811,3.9050823 C11.7754726,3.82973473 11.8877363,3.79206095 12,3.79206095 Z" id="Combined-Shape" stroke="#000000"></path>
        <path d="M17,12.5 L17,13.5 C13.9624339,13.5 11.5,15.9624339 11.5,19 L10.5,19 C10.5,15.4101491 13.4101491,12.5 17,12.5 Z" id="Oval" fill="#000000" fill-rule="nonzero"></path>
        <path d="M17,15.5 L17,16.5 C15.6192881,16.5 14.5,17.6192881 14.5,19 L13.5,19 C13.5,17.0670034 15.0670034,15.5 17,15.5 Z" id="Oval-Copy-4" fill="#000000" fill-rule="nonzero"></path>
        <path d="M17,9.5 L17,10.5 C12.3055796,10.5 8.5,14.3055796 8.5,19 L7.5,19 C7.5,13.7532949 11.7532949,9.5 17,9.5 Z" id="Oval-Copy" fill="#000000" fill-rule="nonzero"></path>
    </g>
</svg>