<?xml version="1.0" encoding="UTF-8"?>
<svg width="24px" height="24px" viewBox="0 0 24 24" version="1.1" xmlns="http://www.w3.org/2000/svg" xmlns:xlink="http://www.w3.org/1999/xlink">
    <title>ic/pc_portatiles</title>
    <g id="ic/pc_portatiles" stroke="none" stroke-width="1" fill="none" fill-rule="evenodd">
        <path d="M15,8 C15.5522847,8 16,8.44771525 16,9 L16,17 C16,17.5522847 15.5522847,18 15,18 L3,18 C2.44771525,18 2,17.5522847 2,17 L2,9 C2,8.44771525 2.44771525,8 3,8 L15,8 Z M15,9 L3,9 L3,17 L15,17 L15,9 Z" id="Rectangle" fill="#000000" fill-rule="nonzero"></path>
        <path d="M21,19 L21,4 L15,4 L15,7 L14,7 L14,4 C14,3.44771525 14.4477153,3 15,3 L21,3 C21.5522847,3 22,3.44771525 22,4 L22,19 C22,19.5522847 21.5522847,20 21,20 L15,20 C14.4477153,20 14,19.5522847 14,19 L21,19 Z" id="Combined-Shape" fill="#000000" fill-rule="nonzero"></path>
        <circle id="Oval" fill="#000000" cx="18.5" cy="5.5" r="1"></circle>
        <path d="M6.5,19 L11.5,19 C11.7761424,19 12,19.2238576 12,19.5 C12,19.7761424 11.7761424,20 11.5,20 L6.5,20 C6.22385763,20 6,19.7761424 6,19.5 C6,19.2238576 6.22385763,19 6.5,19 Z" id="Rectangle" fill="#000000"></path>
    </g>
</svg>