<svg class="w-8 h-8" viewBox="0 0 24 24" version="1.1" xmlns="http://www.w3.org/2000/svg" xmlns:xlink="http://www.w3.org/1999/xlink">
    <g id="ic/social/social_x" stroke="none" stroke-width="1" fill="none" fill-rule="evenodd">
        <path d="M12,0 C18.6274115,0 24,5.37258845 24,12 C24,18.6274115 18.6274115,24 12,24 C5.37258845,24 0,18.6274115 0,12 C0,5.37258845 5.37258845,0 12,0 Z M9.02873289,5.04753911 L4.60798205,5.04753911 L10.3438389,12.7167889 L4.57183221,18.9522614 L5.87098249,18.9522614 L10.9244801,13.4928885 L15.0074169,18.9522614 L19.4281678,18.9522614 L13.3694555,10.8517067 L18.7420689,5.04753911 L17.4429186,5.04753911 L12.7890636,10.0753579 L9.02873289,5.04753911 Z M8.54931128,6.00438784 L17.517462,17.9954127 L15.4865892,17.9954127 L6.51843849,6.00438784 L8.54931128,6.00438784 Z" class="" id="Combined-Shape" fill="#424242"/>
    </g>
</svg>