<svg viewBox="0 0 24 24" class="w-8 fill-primary" version="1.1" xmlns="http://www.w3.org/2000/svg" xmlns:xlink="http://www.w3.org/1999/xlink">
    <g id="ic/checked" stroke="none" stroke-width="1" fill-rule="evenodd">
        <path d="M13.91013,1.16711472 L15.2545474,3.05820463 L17.5,2.47372056 L18.1165483,4.71058163 L20.4264889,4.92933629 L20.2408032,7.24217006 L22.3366188,8.23777842 L21.3710956,10.347623 L23,12 L21.3710956,13.652377 L22.3366188,15.7622216 L20.2408032,16.7578299 L20.4264889,19.0706637 L18.1165483,19.2894184 L17.5,21.5262794 L15.2545474,20.9417954 L13.91013,22.8328853 L12,21.5156599 L10.08987,22.8328853 L8.74545264,20.9417954 L6.5,21.5262794 L5.88345173,19.2894184 L3.57351113,19.0706637 L3.75919681,16.7578299 L1.66338117,15.7622216 L2.62890438,13.652377 L1,12 L2.62890438,10.347623 L1.66338117,8.23777842 L3.75919681,7.24217006 L3.57351113,4.92933629 L5.88345173,4.71058163 L6.5,2.47372056 L8.74545264,3.05820463 L10.08987,1.16711472 L12,2.48434012 L13.91013,1.16711472 Z M16.1686723,8.69684849 C15.783426,8.39149084 15.2165088,8.44757901 14.9024274,8.82212492 L11.197205,13.2398838 L9.09757259,10.73605 C8.78349117,10.3615041 8.21657403,10.3054159 7.83132771,10.6107735 C7.44608139,10.9161312 7.38839084,11.4673019 7.70247226,11.8418478 L10.4999737,15.1779023 C10.8601072,15.6073659 11.5349406,15.6073659 11.895074,15.1779023 L16.2975277,9.92792277 C16.6116092,9.55337686 16.5539186,9.00220613 16.1686723,8.69684849 Z" id="Combined-Shape"/>
    </g>
</svg>