<svg class="w-8 fill-primary" viewBox="0 0 24 24" version="1.1" xmlns="http://www.w3.org/2000/svg" xmlns:xlink="http://www.w3.org/1999/xlink">
    <g id="ic/order" stroke="none" stroke-width="1" fill-rule="evenodd">
        <g id="noun-truck-1933954" transform="translate(1, 3)" fill-rule="nonzero">
            <g id="Group">
                <path d="M22,14.575 C22,15.2166667 21.6514533,15.7208333 21.0097867,15.7208333 C20.8722867,14.5291667 19.9682915,13.2408962 18.3333333,13.2408962 C16.6983752,13.2408962 15.6940625,14.575 15.5565625,15.7208333 L8.50148696,15.7208333 C8.36398696,14.5291667 7.45949687,13.2408962 5.82083333,13.2408962 C4.18216979,13.2408962 3.25416667,14.575 3.11666667,15.7208333 C2.475,15.7208333 1.97083333,15.2166667 1.97083333,14.575 L1.97,13.2195 L1.925,13.2200266 L1.925,10.0833333 C2.70416667,10.5875 3.80416667,10.9083333 4.95,10.9083333 C8.20416667,10.9083333 10.8166667,8.20416667 10.8166667,4.99583333 C10.8166667,4.44583333 10.7708333,3.94166667 10.6333333,3.4375 L14.3,3.4375 C15.0333333,3.4375 15.5833333,4.03333333 15.5833333,4.72083333 L15.5833333,5.27083333 L17.5083333,5.27083333 C17.9666667,5.27083333 18.3791667,5.45416667 18.6541667,5.82083333 L21.4958333,9.625 C21.8166667,10.0375 22,10.5416667 22,11.0916667 Z M17.5083333,6.14166667 L16.5,6.14166667 L16.5,10.3125 L20.9458333,10.3125 C20.9,10.2208333 20.8083333,10.1291667 20.7625,10.0375 L17.9208333,6.325 C17.8291667,6.23333333 17.6458333,6.14166667 17.5083333,6.14166667 Z" id="Shape"/>
                <path d="M20.3333333,16.0416667 C20.3333333,14.9791667 19.4583333,14.0416667 18.3333333,14.0416667 C17.2083333,14.0416667 16.3333333,14.9791667 16.3333333,16.0416667 C16.3333333,17.1666667 17.2083333,18.0416667 18.3333333,18.0416667 C19.4583333,18.0416667 20.3333333,17.1666667 20.3333333,16.0416667 Z" id="Path"/>
                <path d="M7.82083333,16.0416667 C7.82083333,14.9791667 6.94583333,14.0416667 5.82083333,14.0416667 C4.69583333,14.0416667 3.82083333,14.9791667 3.82083333,16.0416667 C3.82083333,17.1666667 4.69583333,18.0416667 5.82083333,18.0416667 C6.94583333,18.0416667 7.82083333,17.1666667 7.82083333,16.0416667 Z" id="Path"/>
                <path d="M4.99583333,9.94583333 C7.79166667,9.94583333 9.94583333,7.65416667 9.94583333,4.95 C9.94583333,2.2 7.7,0 4.99583333,0 C2.24583333,0 0,2.24583333 0,4.95 C0,7.7 2.2,9.94583333 4.99583333,9.94583333 Z M4.44583333,1.69583333 C4.44583333,1.42083333 4.675,1.19166667 4.95,1.19166667 C5.225,1.19166667 5.5,1.42083333 5.5,1.69583333 L5.5,4.30833333 C5.54583333,4.35416667 7.2875,6.09583333 7.19583333,6.00416667 C7.425,6.23333333 7.37916667,6.55416667 7.19583333,6.7375 C7.0125,6.92083333 6.69166667,6.92083333 6.4625,6.7375 C6.41666667,6.69166667 4.49166667,4.76666667 4.62916667,4.90416667 C4.49166667,4.76666667 4.44583333,4.58333333 4.49166667,4.4 C4.44583333,4.30833333 4.49166667,4.35416667 4.44583333,1.69583333 Z" id="Shape"/>
            </g>
        </g>
    </g>
</svg>