<svg class="w-8 h-8" viewBox="0 0 24 24" version="1.1" xmlns="http://www.w3.org/2000/svg" xmlns:xlink="http://www.w3.org/1999/xlink">
    <g id="ic/social/social_tiktok" stroke="none" stroke-width="1" fill="none" fill-rule="evenodd">
        <g id="Instagram_logo_2016" fill="#424242" fill-rule="nonzero">
            <path d="M12.0039172,0 C6.99402847,0 5.52882706,0.0051696682 5.24401907,0.0288024371 C4.2159047,0.114286593 3.57614807,0.276207987 2.87917144,0.62331428 C2.34204167,0.890106086 1.91842901,1.19936302 1.50035378,1.63287663 C0.738958486,2.4234666 0.277506794,3.39610275 0.110461281,4.55226211 C0.0292457828,5.11354038 0.00561945617,5.2280116 0.000820358565,8.09496188 C-0.00102544821,9.05061197 0.000820358565,10.3083184 0.000820358565,11.9952919 C0.000820358565,17.0024848 0.00635777888,18.4666087 0.0303532669,18.7509405 C0.113414572,19.7516405 0.270308147,20.3812323 0.602553366,21.0699059 C1.2375109,22.3881713 2.45020594,23.3777935 3.87886039,23.7470555 C4.3735366,23.8744509 4.9198954,23.9446107 5.62130198,23.9778443 C5.91847687,23.9907684 8.94744578,24 11.9782605,24 C15.0090752,24 18.0398899,23.9963074 18.3296816,23.9815369 C19.1418366,23.9433183 19.6134402,23.8799898 20.1348806,23.7452092 C21.5727641,23.3741009 22.7633095,22.3992492 23.4111876,21.0625207 C23.7369725,20.3904638 23.9021722,19.73687 23.9769274,18.7884206 C23.9931705,18.5816338 24,15.2846779 24,11.9921532 C24,8.69907454 23.9926168,5.40821146 23.9763737,5.20142474 C23.9006956,4.23765088 23.7354959,3.58959604 23.3991899,2.90461501 C23.1232418,2.34389064 22.8168379,1.92514751 22.3719984,1.49698821 C21.5781169,0.738524029 20.6072226,0.276946511 19.4502709,0.11004008 C18.8896994,0.0289870681 18.7780281,0.0049850372 15.9096443,0 L12.0039172,0 Z" id="Path"/>
        </g>
        <g id="Group" transform="translate(4, 2)" fill-rule="nonzero">
            <path d="M12.7759867,7.03186669 C14.0337377,7.93047366 15.5746665,8.45924852 17.238796,8.45924852 L17.238796,5.25844246 C16.9238233,5.25856744 16.6097032,5.22571098 16.3015739,5.16041052 L16.3015739,7.67993482 C14.6375593,7.67993482 13.0968603,7.15115996 11.8387646,6.25255299 L11.8387646,12.7843763 C11.8387646,16.0519544 9.18856938,18.7006556 5.91949723,18.7006556 C4.69978682,18.7006556 3.56604111,18.3320877 2.62422195,17.6999943 C3.69912551,18.7984577 5.19810627,19.4799693 6.85648951,19.4799693 C10.1257915,19.4799693 12.7761017,16.8312681 12.7761017,13.5635751 L12.7761017,7.03186669 L12.7759867,7.03186669 Z M13.932143,3.8026739 C13.2893615,3.10082037 12.867353,2.19370888 12.7759867,1.19086397 L12.7759867,0.779198774 L11.887838,0.779198774 C12.1113693,2.05372892 12.8739038,3.14265346 13.932143,3.8026739 L13.932143,3.8026739 Z M4.69185692,15.1926522 C4.33276542,14.7220264 4.13865606,14.1462413 4.13952222,13.5542661 C4.13952222,12.0597675 5.35176243,10.8481019 6.84729542,10.8481019 C7.12597409,10.847908 7.40301808,10.8906644 7.66867206,10.9748653 L7.66867206,7.70257525 C7.35827659,7.66006476 7.04501748,7.64204237 6.73179472,7.64867493 L6.73179472,10.1956666 C6.46602259,10.1114645 6.18886491,10.0687086 5.9100733,10.0689031 C4.41454031,10.0689031 3.20241502,11.2805687 3.20241502,12.7751823 C3.20241502,13.8319275 3.80830528,14.7469689 4.69185692,15.1926522 L4.69185692,15.1926522 Z" id="Shape" fill="#EE1D52"/>
            <path d="M11.8387646,6.25255299 C13.0968603,7.15115996 14.6375593,7.67993482 16.3015739,7.67993482 L16.3015739,5.16041052 C15.3727414,4.96273768 14.5504453,4.4775198 13.932143,3.8026739 C12.8739038,3.14265346 12.1113693,2.05372892 11.887838,0.779198774 L9.5549537,0.779198774 L9.5549537,13.5634602 C9.5496671,15.0538215 8.33949555,16.2605453 6.84718049,16.2605453 C5.96776618,16.2605453 5.18649874,15.8416397 4.691742,15.1926522 C3.80819035,14.7469689 3.20230009,13.8319275 3.20230009,12.7751823 C3.20230009,11.2805687 4.41442538,10.0689031 5.90995837,10.0689031 C6.19646907,10.0689031 6.47263642,10.1134944 6.73167979,10.1956666 L6.73167979,7.64867493 C3.52007069,7.71498727 0.937107198,10.3378301 0.937107198,13.5635751 C0.937107198,15.1738043 1.58034843,16.6335953 2.62422195,17.7001093 C3.56604111,18.3322027 4.69978682,18.7007706 5.91949723,18.7007706 C9.18856938,18.7007706 11.8387646,16.0519544 11.8387646,12.7844913 L11.8387646,6.25255299 Z" id="Path" fill="#FFFFFF"/>
            <path d="M16.3015739,5.16041052 L16.3015739,4.47912876 C15.4639271,4.48039231 14.6428271,4.24593453 13.932143,3.80255897 C14.5612271,4.49094268 15.3896027,4.96566052 16.3015739,5.16041052 L16.3015739,5.16041052 Z M11.887838,0.779198774 C11.8664846,0.657406576 11.8501132,0.534793251 11.8387646,0.411665193 L11.8387646,0 L8.61761665,0 L8.61761665,12.7843763 C8.61244497,14.2746227 7.40238835,15.4813465 5.90995837,15.4813465 C5.47174525,15.4813465 5.05812632,15.3774533 4.691742,15.1926522 C5.18649874,15.8416397 5.96776618,16.2605453 6.84718049,16.2605453 C8.33938062,16.2605453 9.5496671,15.0538215 9.5549537,13.5634602 L9.5549537,0.779198774 L11.887838,0.779198774 Z M6.73179472,7.64867493 L6.73179472,6.92337648 C6.46263419,6.88657719 6.19127658,6.86818462 5.91961216,6.86832607 C2.65019524,6.86832607 0,9.51714302 0,12.7843763 C0,14.8328187 1.041575,16.6380774 2.62433687,17.6999943 C1.58046335,16.6334804 0.937222124,15.1736894 0.937222124,13.5634602 C0.937222124,10.3378301 3.52007069,7.71498727 6.73179472,7.64867493 L6.73179472,7.64867493 Z" id="Shape" fill="#69C9D0"/>
        </g>
    </g>
</svg>