<?xml version="1.0" encoding="UTF-8"?>
<svg xmlns:xlink="http://www.w3.org/1999/xlink" width="82px" height="24px" viewBox="0 0 82 24" version="1.1"
     xmlns="http://www.w3.org/2000/svg">
    <title>logo/bitcoin</title>
    <g id="logo/bitcoin" stroke="none" stroke-width="1" fill="none" fill-rule="evenodd">
        <g id="bitcoin-logo-(1)" transform="translate(0, 4)" fill-rule="nonzero">
            <path d="M15.9524349,10.0571989 C14.8708103,14.3963507 10.4767421,17.035879 6.13759031,15.9542545 C1.80071613,14.8726299 -0.839571455,10.4783087 0.242559256,6.14016912 C1.32367768,1.8010173 5.71749279,-0.83927028 10.0551262,0.24235429 C14.3937719,1.32397886 17.0338064,5.71880625 15.9521818,10.0571989 L15.9524349,10.0571989 Z"
                  id="Path" fill="#F7931A"></path>
            <path d="M11.6679464,6.94468117 C11.8291524,5.86710574 11.0086969,5.28782669 9.88683411,4.90138759 L10.2507499,3.44167526 L9.36221836,3.22023831 L9.00791925,4.64148389 C8.77125614,4.58333447 8.53403324,4.52748755 8.29628418,4.47395102 L8.65311399,3.04334183 L7.76483551,2.82190488 L7.40091971,4.28111108 C7.20757362,4.23707676 7.01777053,4.19354858 6.83353499,4.14774277 L6.83454727,4.14318749 L5.60917849,3.83722491 L5.37281037,4.78624038 C5.37281037,4.78624038 6.03205979,4.93732364 6.0181409,4.94668726 C6.37800756,5.03652739 6.44304676,5.27466701 6.43216471,5.46345782 L6.01763475,7.126386 C6.04243569,7.13271277 6.07457568,7.14207639 6.11000559,7.15599529 L6.01611633,7.13271277 L5.43506579,9.46222942 C5.39103147,9.57155601 5.27942725,9.73554588 5.02762181,9.67329046 C5.03673236,9.68619707 4.38203822,9.51208437 4.38203822,9.51208437 L3.94093583,10.529429 L5.09721628,10.8179297 C5.31232645,10.8715807 5.52313442,10.9280155 5.73065247,10.9811603 L5.36294061,12.4575753 L6.25045988,12.6790123 L6.61437568,11.2180346 C6.8568175,11.2840861 7.09217334,11.34457 7.32246776,11.4020171 L6.95956425,12.8559088 L7.84784273,13.0773457 L8.21580766,11.6037145 C9.7309425,11.8904437 10.8702672,11.7747903 11.3498364,10.4046651 C11.7362755,9.3012764 11.330603,8.66480335 10.53343,8.24951418 C11.1139744,8.11538666 11.5512807,7.73350284 11.6679464,6.94468117 L11.6679464,6.94468117 Z M9.63755938,9.79122145 C9.36297757,10.8946101 7.50518488,10.2983753 6.90287639,10.1485574 L7.39079688,8.19257325 C7.99310536,8.34315038 9.92454166,8.64076163 9.63755938,9.79122145 Z M9.91239426,6.92899078 C9.66185417,7.93241648 8.11559163,7.42247883 7.61400532,7.29746186 L8.05637306,5.5234356 C8.55795938,5.64845257 10.1733102,5.88178384 9.91239426,6.92873771 L9.91239426,6.92899078 Z"
                  id="Shape" fill="#FFFFFF"></path>
            <path d="M28.1642635,4.89986917 C28.8209822,4.89986917 29.3883669,5.01754708 29.8648992,5.24860072 C30.3442153,5.48193199 30.7395119,5.79624591 31.0566096,6.19154249 C31.3694051,6.58886364 31.6022302,7.05324854 31.7525543,7.58545642 C31.901866,8.11943579 31.976775,8.69289421 31.976775,9.30684396 C31.976775,10.250798 31.8039276,11.1416072 31.454943,11.9818022 C31.1057053,12.8232626 30.6324629,13.5533719 30.0301544,14.175926 C29.4283521,14.797721 28.7177293,15.287666 27.8982861,15.6498103 C27.0801082,16.0122077 26.1905644,16.1934064 25.2354752,16.1934064 C25.1119767,16.1934064 24.8948419,16.1898634 24.5881201,16.1835366 C24.2813983,16.1772098 23.9288707,16.145576 23.5340803,16.0924311 C23.1097252,16.0318358 22.6888067,15.9492232 22.2730285,15.8449279 C21.8379076,15.7398675 21.4151834,15.5888643 21.0119767,15.3944619 L24.5580047,0.494159729 L27.7340431,0.00219010736 L26.464387,5.28959819 C26.728431,5.17026084 27.0024677,5.0743988 27.2833241,5.00312205 C27.5716005,4.93304916 27.8673435,4.89837585 28.1640104,4.89986917 L28.1642635,4.89986917 Z M25.5001873,13.6738336 C25.978491,13.6738336 26.4289571,13.5561556 26.8525976,13.3253551 C27.2784174,13.0925689 27.6521052,12.7751194 27.9506717,12.3925361 C28.2626762,11.9936292 28.5081958,11.5469425 28.6777441,11.0697351 C28.8555295,10.5764532 28.9457979,10.0559113 28.944495,9.53157082 C28.944495,8.87561132 28.8349011,8.36491446 28.616501,7.99467189 C28.3981009,7.62645389 27.9939468,7.44120607 27.4068226,7.44120607 C27.2144888,7.44120607 26.9669856,7.47790133 26.6597576,7.54344667 C26.3515174,7.61304114 26.0756702,7.75754456 25.8284201,7.97493237 L24.4762628,13.5900671 C24.5577516,13.6044922 24.6298768,13.618158 24.691373,13.6310646 C24.7516038,13.6449835 24.8179084,13.6548533 24.884466,13.6616862 C24.9545666,13.6695314 25.0347901,13.6735805 25.1317162,13.6735805 L25.4999342,13.6738336 L25.5001873,13.6738336 Z M35.2704914,15.9084487 L32.2369318,15.9084487 L34.7987674,5.12839209 L37.8530788,5.12839209 L35.2704914,15.9084487 Z M36.7466533,3.81495468 C36.3327945,3.81838686 35.9293409,3.68532544 35.5987242,3.43636077 C35.2553071,3.18531454 35.0849905,2.79887544 35.0849905,2.27805575 C35.0849905,1.99157961 35.1431967,1.72281843 35.2588501,1.46924149 C35.3706152,1.22360003 35.5273467,1.00103446 35.7209574,0.813028928 C35.9150011,0.627811874 36.1403475,0.478466353 36.3865336,0.371926536 C36.6427515,0.262434023 36.9187445,0.206787482 37.1973724,0.208406929 C37.6205067,0.208406929 38.0021375,0.334472059 38.3442892,0.58703671 C38.6849225,0.840866716 38.8562856,1.22730582 38.8562856,1.74534173 C38.8579218,2.02496363 38.7983185,2.30155714 38.6816326,2.55567441 C38.5709524,2.80155364 38.4146636,3.02422223 38.2210437,3.21188698 C38.0274504,3.39734413 37.8019788,3.54634399 37.5554675,3.65172401 C37.3018906,3.76256902 37.0331294,3.81495468 36.7466533,3.81495468 L36.7466533,3.81495468 Z M40.5115875,2.44255176 L43.6888913,1.95032907 L42.908674,5.12788595 L46.3114639,5.12788595 L45.697008,7.62771924 L42.3147169,7.62771924 L41.4137849,11.3984741 C41.3307776,11.7125349 41.2837065,12.006097 41.2705468,12.2791604 C41.2553625,12.5532361 41.2902863,12.7885919 41.3722812,12.9867464 C41.45377,13.1854069 41.600045,13.3385148 41.8126244,13.446576 C42.0244447,13.5566618 42.3273704,13.6120843 42.7246916,13.6120843 C43.0519121,13.6120843 43.3710344,13.5809566 43.6787685,13.5192073 C43.9949494,13.4565334 44.3061922,13.3711108 44.610069,13.2636058 L44.8368204,15.6007146 C44.4014633,15.7583543 43.9565077,15.8881048 43.5046558,15.9891782 C43.0255927,16.0995171 42.4584611,16.1524089 41.8030077,16.1524089 C40.8605721,16.1524089 40.1299567,16.0124608 39.6093901,15.7340829 C39.0895827,15.4536804 38.7221239,15.0700251 38.5022054,14.5846353 C38.2853237,14.1012701 38.1883976,13.5437552 38.2154762,12.9153804 C38.243314,12.2857403 38.3384686,11.6237071 38.5022054,10.9270032 L40.5115875,2.44255176 L40.5115875,2.44255176 Z M46.1780956,11.6039675 C46.1780956,10.6751977 46.3284197,9.79982586 46.6285616,8.97987649 C46.9284505,8.15942098 47.3604424,7.44196528 47.9207411,6.82649711 C48.4792683,6.21406579 49.1597757,5.72842294 49.9609978,5.37209927 C50.7576647,5.01780016 51.6504984,4.83913218 52.6339315,4.83913218 C53.2499059,4.83913218 53.7998287,4.89733846 54.2839531,5.01400409 C54.769849,5.13168201 55.2091799,5.28377756 55.6067541,5.47459294 L54.5608126,7.85345839 C54.2820074,7.74139923 53.9981822,7.64225886 53.7102416,7.55635328 C53.4166795,7.46600701 53.0585843,7.42247883 52.6346908,7.42247883 C51.6219014,7.42247883 50.8216916,7.77171653 50.2259629,8.46715506 C49.6322589,9.16335282 49.3333823,10.100474 49.3333823,11.2762409 C49.3333823,11.9729448 49.4839594,12.5360273 49.7856198,12.9670068 C50.0857617,13.3979864 50.6402398,13.6125904 51.445258,13.6125904 C51.8423261,13.6125904 52.2259814,13.5710868 52.5931871,13.4901042 C52.9631766,13.4081092 53.289891,13.3048563 53.5776325,13.1828762 L53.804384,15.6214664 C53.3893256,15.7806654 52.9649897,15.9145327 52.5337155,16.0223305 C52.0680652,16.1362124 51.5145994,16.1949248 50.8725588,16.1949248 C50.0252778,16.1949248 49.307569,16.0711732 48.7209509,15.8267068 C48.1338267,15.5789505 47.64869,15.2497054 47.2663,14.8326447 C46.8821386,14.4145718 46.6065445,13.9261451 46.4359747,13.3660995 C46.265405,12.8060538 46.1778425,12.2171581 46.1778425,11.6039675 L46.1780956,11.6039675 Z M59.6541153,16.1941656 C58.9300798,16.1941656 58.3009458,16.0838267 57.7674726,15.8654266 C57.2355178,15.6472796 56.7951746,15.3405578 56.446443,14.9432367 C56.0972053,14.5479401 55.8362894,14.079506 55.6573683,13.539706 C55.4784473,13.0001591 55.3924032,12.402659 55.3924032,11.7479648 C55.3924032,10.9270032 55.524,10.1060415 55.7907366,9.28685136 C56.0562079,8.46690199 56.449733,7.7294537 56.9700465,7.07425342 C57.4870701,6.41804085 58.1248085,5.88153077 58.8749104,5.46320475 C59.6247591,5.04766251 60.4869713,4.83862603 61.4559794,4.83862603 C62.1668552,4.83862603 62.7921932,4.94921797 63.3332585,5.16761806 C63.8715401,5.38551202 64.3149201,5.69451146 64.6654232,6.08980803 C65.0121302,6.48712918 65.2758299,6.95353865 65.4524734,7.49435094 C65.6311413,8.03263251 65.71921,8.63165108 65.71921,9.28685136 C65.71921,10.1052823 65.5891316,10.9267501 65.3312524,11.7477118 C65.0728672,12.5651304 64.6894649,13.3040971 64.1833233,13.9605628 C63.678194,14.6160161 63.0467824,15.1520201 62.2878231,15.5685746 C61.5303822,15.9853822 60.6514673,16.1941656 59.6541153,16.1941656 L59.6541153,16.1941656 Z M61.1700094,7.4227319 C60.7203026,7.4227319 60.3227284,7.55306336 59.9823482,7.8109425 C59.6407026,8.07185849 59.3539734,8.4000913 59.1226667,8.79538788 C58.8888293,9.19270903 58.7157288,9.62596623 58.5985571,10.096931 C58.4821445,10.568908 58.4252036,11.015578 58.4252036,11.4389654 C58.4252036,12.1230157 58.5357955,12.6562359 58.7524241,13.0393851 C58.9720896,13.4205097 59.3673861,13.6125904 59.9413507,13.6125904 C60.3925759,13.6125904 60.7883786,13.4827651 61.1305303,13.2223553 C61.4701514,12.9634638 61.7576398,12.635231 61.9904649,12.2386691 C62.2227839,11.8438787 62.3976558,11.409103 62.5148276,10.937126 C62.6294687,10.4666674 62.687928,10.0179729 62.687928,9.59483852 C62.687928,8.91255966 62.5780953,8.37858029 62.358936,7.99568418 C62.140789,7.61430649 61.7437209,7.42247883 61.1700094,7.42247883 L61.1700094,7.4227319 Z M69.0250737,15.9084487 L65.9892365,15.9084487 L68.5510721,5.12839209 L71.6066489,5.12839209 L69.0250737,15.9084487 L69.0250737,15.9084487 Z M70.498958,3.81495468 C70.0854782,3.8184484 69.6824065,3.68536625 69.3522943,3.43636077 C69.0101426,3.18531454 68.8385606,2.79887544 68.8385606,2.27805575 C68.8385606,1.99157961 68.8977791,1.72281843 69.0131794,1.46924149 C69.1242094,1.22330707 69.2808397,1.0006412 69.4747805,0.813028928 C69.6690582,0.627745553 69.8946657,0.478397356 70.1411159,0.371926536 C70.3963496,0.262412943 70.6714397,0.206757382 70.949171,0.208442804 C71.3735707,0.208442804 71.7564668,0.334472059 72.0978593,0.58703671 C72.4392518,0.840866716 72.6113399,1.22730582 72.6113399,1.74534173 C72.6113399,2.03283015 72.5500968,2.30260362 72.4354557,2.55567441 C72.3208147,2.8087452 72.1666946,3.02663916 71.9758792,3.21188698 C71.7819361,3.39690585 71.5565482,3.54585046 71.310303,3.65172401 C71.0559669,3.76256902 70.7872057,3.81495468 70.498958,3.81495468 Z M73.7929275,5.61859022 C74.0232219,5.55127339 74.2803418,5.47029073 74.559732,5.3822221 C74.8705523,5.28583562 75.1858194,5.20442188 75.5044453,5.13826185 C75.8508992,5.06234061 76.2418935,5.00033827 76.6718608,4.95250789 C77.101575,4.90366523 77.5917732,4.87987657 78.1358754,4.87987657 C79.7357889,4.87987657 80.8386714,5.3457799 81.4475598,6.27480278 C82.0559419,7.20382567 82.1612194,8.47500026 81.766429,10.0868081 L80.3709966,15.9074364 L77.3174444,15.9074364 L78.6701078,10.2090413 C78.7523558,9.85347687 78.8168889,9.50930059 78.8649723,9.17322258 C78.9135619,8.84018141 78.9105251,8.54636622 78.8543433,8.29253622 C78.8047313,8.04918487 78.6708418,7.8311439 78.4762556,7.67681498 C78.2760766,7.52016416 77.973657,7.44145914 77.5636823,7.44145914 C77.1576765,7.44306061 76.7528218,7.48476674 76.3550162,7.56596997 L74.366639,15.9066772 L71.3120745,15.9066772 L73.7929275,5.61859022 L73.7929275,5.61859022 Z"
                  id="Shape" fill="#4D4D4D"></path>
        </g>
    </g>
</svg>