<svg class="w-8 h-8" viewBox="0 0 24 24" version="1.1" xmlns="http://www.w3.org/2000/svg" xmlns:xlink="http://www.w3.org/1999/xlink">
    <g id="ic/social/social_telegram" stroke="none" stroke-width="1" fill="none" fill-rule="evenodd">
        <path d="M12,0 C18.627417,0 24,5.372583 24,12 C24,18.627417 18.627417,24 12,24 C5.372583,24 0,18.627417 0,12 C0,5.372583 5.372583,0 12,0 Z M17.7227,7.8035 C17.818125,6.72265833 16.7769063,7.04054306 16.6027071,7.10102969 L16.5782,7.1099 C16.5782,7.1099 15.7938231,7.43167633 14.9452443,7.78284374 L14.5797366,7.93429108 C13.9710047,8.18686095 13.3820077,8.43311538 13.0752,8.5665 L4.9942,11.896 C3.5714,12.4509 4.4038,12.9711 4.4038,12.9711 C4.4038,12.9711 4.4878651,12.9999227 4.63071099,13.0480861 L4.94585546,13.1536199 C5.39527258,13.3031288 6.05576316,13.5187105 6.6581,13.6994 C7.503425,13.9529812 8.02831016,13.7715855 8.19542363,13.6946472 L8.24701309,13.6685185 L13.1437,10.3699 C14.8778,9.1906 14.4616,10.1617 14.0454,10.5779 C13.1438,11.4796 11.6524,12.9016 10.4038,14.0461 C9.8489,14.5316 10.1263,14.9479 10.3691,15.1559 C10.7159462,15.4493615 11.2936651,15.860826 11.8812452,16.2620277 L12.2332085,16.500491 C13.0489663,17.0492432 13.7974154,17.5276 13.8721,17.5836 C14.0454,17.7224 15.0155,18.3466 15.6061,18.2079 C16.1967,18.0692 16.2661,17.2715 16.2661,17.2715 L17.1331,11.8265 C17.4107,9.9885 17.688,8.289 17.7227,7.8035 Z" class="" id="Combined-Shape" fill="#34AADF" fill-rule="nonzero"/>
    </g>
</svg>