<svg class="w-8 h-8" viewBox="0 0 24 24" version="1.1" xmlns="http://www.w3.org/2000/svg" xmlns:xlink="http://www.w3.org/1999/xlink">
    <defs>
        <radialGradient cx="26.5626266%" cy="107.702106%" fx="26.5626266%" fy="107.702106%" r="99.107386%" id="radialGradient-1">
            <stop stop-color="#FFDD55" offset="0%"/>
            <stop stop-color="#FFDD55" offset="10%"/>
            <stop stop-color="#FF543E" offset="50%"/>
            <stop stop-color="#C837AB" offset="100%"/>
        </radialGradient>
    </defs>
    <g id="ic/social/social_instagram" stroke="none" stroke-width="1" fill="none" fill-rule="evenodd">
        <path d="M12.0039172,0 C6.99402847,0 5.52882706,0.0051696682 5.24401907,0.0288024371 C4.2159047,0.114286593 3.57614807,0.276207987 2.87917144,0.62331428 C2.34204167,0.890106086 1.91842901,1.19936302 1.50035378,1.63287663 C0.738958486,2.4234666 0.277506794,3.39610275 0.110461281,4.55226211 C0.0292457828,5.11354038 0.00561945617,5.2280116 0.000820358565,8.09496188 C-0.00102544821,9.05061197 0.000820358565,10.3083184 0.000820358565,11.9952919 C0.000820358565,17.0024848 0.00635777888,18.4666087 0.0303532669,18.7509405 C0.113414572,19.7516405 0.270308147,20.3812323 0.602553366,21.0699059 C1.2375109,22.3881713 2.45020594,23.3777935 3.87886039,23.7470555 C4.3735366,23.8744509 4.9198954,23.9446107 5.62130198,23.9778443 C5.91847687,23.9907684 8.94744578,24 11.9782605,24 C15.0090752,24 18.0398899,23.9963074 18.3296816,23.9815369 C19.1418366,23.9433183 19.6134402,23.8799898 20.1348806,23.7452092 C21.5727641,23.3741009 22.7633095,22.3992492 23.4111876,21.0625207 C23.7369725,20.3904638 23.9021722,19.73687 23.9769274,18.7884206 C23.9931705,18.5816338 24,15.2846779 24,11.9921532 C24,8.69907454 23.9926168,5.40821146 23.9763737,5.20142474 C23.9006956,4.23765088 23.7354959,3.58959604 23.3991899,2.90461501 C23.1232418,2.34389064 22.8168379,1.92514751 22.3719984,1.49698821 C21.5781169,0.738524029 20.6072226,0.276946511 19.4502709,0.11004008 C18.8896994,0.0289870681 18.7780281,0.0049850372 15.9096443,0 L12.0039172,0 Z" id="Path" fill="url(#radialGradient-1)" fill-rule="nonzero"/>
        <path d="M11.9983798,3.13787151 C9.59218608,3.13787151 9.2902121,3.14839261 8.34515903,3.19139991 C7.40195177,3.23459179 6.75813437,3.38391755 6.19479414,3.60301482 C5.61207294,3.82931073 5.11776589,4.13202304 4.62530464,4.62466887 C4.13247424,5.11713011 3.82976193,5.61143717 3.60272769,6.19397378 C3.38307669,6.75749859 3.23356634,7.40150057 3.19111278,8.34433867 C3.14884381,9.28939174 3.13776897,9.59155031 3.13776897,11.997744 C3.13776897,14.4039377 3.14847465,14.7049888 3.19129736,15.6500419 C3.23467382,16.5932491 3.38399959,17.2370665 3.60291227,17.8004068 C3.82939276,18.383128 4.13210507,18.877435 4.6247509,19.3698963 C5.11702757,19.8627267 5.61133462,20.1661773 6.19368666,20.3924732 C6.75739605,20.6115705 7.40139803,20.7608962 8.34442071,20.8040881 C9.28947377,20.8470954 9.59126318,20.8576165 11.9972723,20.8576165 C14.4036506,20.8576165 14.7047017,20.8470954 15.6497547,20.8040881 C16.592962,20.7608962 17.2375177,20.6115705 17.8012271,20.3924732 C18.3837637,20.1661773 18.8773325,19.8627267 19.3696091,19.3698963 C19.8624395,18.877435 20.1651519,18.383128 20.3921861,17.8005913 C20.6099913,17.2370665 20.7595016,16.5930646 20.803801,15.6502265 C20.8462546,14.7051734 20.8573294,14.4039377 20.8573294,11.997744 C20.8573294,9.59155031 20.8462546,9.28957632 20.803801,8.34452325 C20.7595016,7.40131599 20.6099913,6.75749859 20.3921861,6.19415836 C20.1651519,5.61143717 19.8624395,5.11713011 19.3696091,4.62466887 C18.8767787,4.13183846 18.3839483,3.82912615 17.8006734,3.60301482 C17.2358565,3.38391755 16.5916699,3.23459179 15.6484627,3.19139991 C14.7034096,3.14839261 14.4025431,3.13787151 11.9956111,3.13787151 L11.9983798,3.13787151 Z M11.2035754,4.73449437 C11.4394695,4.73412521 11.7026815,4.73449437 11.9983798,4.73449437 C14.3639658,4.73449437 14.6443438,4.74298508 15.5785066,4.78543864 C16.4423442,4.8249389 16.9111791,4.96928099 17.2234896,5.09055049 C17.6369503,5.25113568 17.9317257,5.44309959 18.2416366,5.75319513 C18.5517322,6.06329066 18.7436961,6.35861975 18.9046504,6.77208046 C19.0259199,7.08402181 19.1704466,7.55285673 19.2097623,8.4166943 C19.2522158,9.35067252 19.2614449,9.63123515 19.2614449,11.9957136 C19.2614449,14.3601921 19.2522158,14.6407547 19.2097623,15.574733 C19.170262,16.4385705 19.0259199,16.9074054 18.9046504,17.2193468 C18.7440652,17.6328075 18.5517322,17.9272137 18.2416366,18.2371246 C17.9315411,18.5472202 17.6371349,18.7391841 17.2234896,18.8997693 C16.9115483,19.0215925 16.4423442,19.1655654 15.5785066,19.2050657 C14.6445284,19.2475193 14.3639658,19.2567483 11.9983798,19.2567483 C9.63260925,19.2567483 9.3522312,19.2475193 8.41825298,19.2050657 C7.55441541,19.1651963 7.08558049,19.0208542 6.7730854,18.8995847 C6.35962469,18.7389995 6.0642956,18.5470356 5.75420006,18.2369401 C5.44410453,17.9268445 5.25214062,17.6322538 5.09118627,17.2186085 C4.96991677,16.9066671 4.8253901,16.4378322 4.78607441,15.5739946 C4.74362086,14.6400164 4.73513015,14.3594538 4.73513015,11.9934987 C4.73513015,9.62754354 4.74362086,9.34845755 4.78607441,8.41447933 C4.82557468,7.55064176 4.96991677,7.08180684 5.09118627,6.76949633 C5.25177146,6.35603562 5.44410453,6.06070653 5.75420006,5.750611 C6.0642956,5.44051546 6.35962469,5.24855155 6.7730854,5.0875972 C7.08539591,4.96577396 7.55441541,4.82180103 8.41825298,4.78211618 C9.23557622,4.74520005 9.55231666,4.73412521 11.2035754,4.7322794 L11.2035754,4.73449437 Z M16.7277059,6.20560237 C16.1407393,6.20560237 15.6645212,6.68126677 15.6645212,7.2684179 C15.6645212,7.85538446 16.1407393,8.3316026 16.7277059,8.3316026 C17.3146725,8.3316026 17.7908906,7.85538446 17.7908906,7.2684179 C17.7908906,6.68145135 17.3146725,6.2052332 16.7277059,6.2052332 L16.7277059,6.20560237 Z M11.9983798,7.44783032 C9.48568303,7.44783032 7.4484661,9.48504726 7.4484661,11.997744 C7.4484661,14.5104408 9.48568303,16.5467348 11.9983798,16.5467348 C14.5110765,16.5467348 16.5475552,14.5104408 16.5475552,11.997744 C16.5475552,9.48504726 14.510892,7.44783032 11.9981952,7.44783032 L11.9983798,7.44783032 Z M11.9983798,9.04445318 C13.6293347,9.04445318 14.9516706,10.3666046 14.9516706,11.997744 C14.9516706,13.6286989 13.6293347,14.9510348 11.9983798,14.9510348 C10.3672403,14.9510348 9.04508896,13.6286989 9.04508896,11.997744 C9.04508896,10.3666046 10.3672403,9.04445318 11.9983798,9.04445318 Z" id="Shape" fill="#FFFFFF" fill-rule="nonzero"/>
    </g>
</svg>