<?xml version="1.0" encoding="UTF-8"?>
<svg xmlns:xlink="http://www.w3.org/1999/xlink" width="82px" height="24px" viewBox="0 0 82 24" version="1.1"
     xmlns="http://www.w3.org/2000/svg">
    <title>logo/efectivo</title>
    <g id="logo/efectivo" stroke="none" stroke-width="1" fill="none" fill-rule="evenodd">
        <g id="Group-2" transform="translate(2, 4)">
            <circle id="Oval" fill="#FF9316" cx="8" cy="8" r="8"></circle>
            <g id="efectivo" transform="translate(21.441, 3.52)" fill="#000000" fill-rule="nonzero">
                <path d="M3.16878893,9.0255 C2.55229303,9.0255 2.00566667,8.89398087 1.52890984,8.63094262 C1.05215301,8.36790437 0.678145492,7.99800683 0.406887295,7.52125 C0.135629098,7.04449317 0,6.49375683 0,5.86904098 C0,5.23610519 0.133574112,4.67303893 0.400722336,4.17984221 C0.66787056,3.68664549 1.0377681,3.30236305 1.51041496,3.02699488 C1.98306182,2.75162671 2.53996311,2.61394262 3.18111885,2.61394262 C3.78117486,2.61394262 4.31136134,2.74546175 4.77167828,3.0085 C5.23199522,3.27153825 5.59161783,3.63116086 5.85054611,4.08736783 C6.10947439,4.5435748 6.23893852,5.05115642 6.23893852,5.6101127 C6.23893852,5.7005321 6.23688354,5.79506148 6.23277357,5.89370082 C6.22866359,5.99234016 6.22249863,6.09508948 6.21427869,6.20194877 L1.56589959,6.20194877 C1.59877937,6.6787056 1.76523327,7.05271311 2.06526127,7.32397131 C2.36528928,7.59522951 2.72902186,7.73085861 3.15645902,7.73085861 C3.47703689,7.73085861 3.7462401,7.65893408 3.96406865,7.51508504 C4.1818972,7.371236 4.34424112,7.18423224 4.45110041,6.95407377 L6.05398975,6.95407377 C5.93891052,7.3404112 5.74779679,7.69181387 5.48064857,8.00828176 C5.21350034,8.32474966 4.88470253,8.57340301 4.49425512,8.7542418 C4.10380772,8.9350806 3.66198566,9.0255 3.16878893,9.0255 Z M3.18111885,3.8962541 C2.79478142,3.8962541 2.45365369,4.00516837 2.15773566,4.22299693 C1.86181762,4.44082548 1.67275888,4.77167828 1.59055943,5.21555533 L4.63604918,5.21555533 C4.61138934,4.81277801 4.46343033,4.49220014 4.19217213,4.25382172 C3.92091393,4.01544331 3.58389617,3.8962541 3.18111885,3.8962541 Z"
                      id="Shape"></path>
                <path d="M7.85415779,8.87754098 L7.85415779,4.08120287 L7.01572336,4.08120287 L7.01572336,2.76190164 L7.85415779,2.76190164 L7.85415779,2.04676639 C7.85415779,1.30697131 8.04116154,0.780894809 8.41516906,0.468536885 C8.78917657,0.156178962 9.2967582,0 9.93791393,0 L10.6160594,0 L10.6160594,1.34396107 L10.1845123,1.34396107 C9.9132541,1.34396107 9.72008538,1.39739071 9.60500615,1.50425 C9.48992691,1.61110929 9.4323873,1.79194809 9.4323873,2.04676639 L9.4323873,2.76190164 L10.7516885,2.76190164 L10.7516885,4.08120287 L9.4323873,4.08120287 L9.4323873,8.87754098 L7.85415779,8.87754098 Z"
                      id="Path"></path>
                <path d="M14.9685205,9.0255 C14.3520246,9.0255 13.8053982,8.89398087 13.3286414,8.63094262 C12.8518846,8.36790437 12.477877,7.99800683 12.2066189,7.52125 C11.9353607,7.04449317 11.7997316,6.49375683 11.7997316,5.86904098 C11.7997316,5.23610519 11.9333057,4.67303893 12.2004539,4.17984221 C12.4676021,3.68664549 12.8374997,3.30236305 13.3101465,3.02699488 C13.7827934,2.75162671 14.3396947,2.61394262 14.9808504,2.61394262 C15.5809064,2.61394262 16.1110929,2.74546175 16.5714098,3.0085 C17.0317268,3.27153825 17.3913494,3.63116086 17.6502777,4.08736783 C17.9092059,4.5435748 18.0386701,5.05115642 18.0386701,5.6101127 C18.0386701,5.7005321 18.0366151,5.79506148 18.0325051,5.89370082 C18.0283952,5.99234016 18.0222302,6.09508948 18.0140102,6.20194877 L13.3656311,6.20194877 C13.3985109,6.6787056 13.5649648,7.05271311 13.8649928,7.32397131 C14.1650208,7.59522951 14.5287534,7.73085861 14.9561906,7.73085861 C15.2767684,7.73085861 15.5459717,7.65893408 15.7638002,7.51508504 C15.9816288,7.371236 16.1439727,7.18423224 16.250832,6.95407377 L17.8537213,6.95407377 C17.7386421,7.3404112 17.5475283,7.69181387 17.2803801,8.00828176 C17.0132319,8.32474966 16.6844341,8.57340301 16.2939867,8.7542418 C15.9035393,8.9350806 15.4617172,9.0255 14.9685205,9.0255 Z M14.9808504,3.8962541 C14.594513,3.8962541 14.2533852,4.00516837 13.9574672,4.22299693 C13.6615492,4.44082548 13.4724904,4.77167828 13.390291,5.21555533 L16.4357807,5.21555533 C16.4111209,4.81277801 16.2631619,4.49220014 15.9919037,4.25382172 C15.7206455,4.01544331 15.3836277,3.8962541 14.9808504,3.8962541 Z"
                      id="Shape"></path>
                <path d="M22.3664713,9.0255 C21.7417555,9.0255 21.1910191,8.8898709 20.7142623,8.6186127 C20.2375055,8.34735451 19.861443,7.96923702 19.5860748,7.48426025 C19.3107066,6.99928347 19.1730225,6.44443716 19.1730225,5.81972131 C19.1730225,5.19500546 19.3107066,4.64015915 19.5860748,4.15518238 C19.861443,3.6702056 20.2375055,3.29208811 20.7142623,3.02082992 C21.1910191,2.74957172 21.7417555,2.61394262 22.3664713,2.61394262 C23.1473661,2.61394262 23.8049617,2.81738627 24.3392582,3.22427357 C24.8735546,3.63116086 25.2146824,4.19217213 25.3626414,4.90730738 L23.6981025,4.90730738 C23.615903,4.61138934 23.4535591,4.37917589 23.2110707,4.21066701 C22.9685823,4.04215813 22.6829392,3.95790369 22.3541414,3.95790369 C21.9184843,3.95790369 21.5485867,4.1223026 21.2444488,4.45110041 C20.9403108,4.77989822 20.7882418,5.23610519 20.7882418,5.81972131 C20.7882418,6.40333743 20.9403108,6.8595444 21.2444488,7.18834221 C21.5485867,7.51714003 21.9184843,7.68153893 22.3541414,7.68153893 C22.6829392,7.68153893 22.9685823,7.59933948 23.2110707,7.43494057 C23.4535591,7.27054167 23.615903,7.03627322 23.6981025,6.73213525 L25.3626414,6.73213525 C25.2146824,7.42261066 24.8735546,7.97745697 24.3392582,8.39667418 C23.8049617,8.81589139 23.1473661,9.0255 22.3664713,9.0255 Z"
                      id="Path"></path>
                <path d="M29.4931639,8.87754098 C28.8520082,8.87754098 28.3382616,8.72136202 27.9519242,8.4090041 C27.5655867,8.09664617 27.372418,7.54179986 27.372418,6.74446516 L27.372418,4.08120287 L26.324375,4.08120287 L26.324375,2.76190164 L27.372418,2.76190164 L27.5573668,1.12202254 L28.9506475,1.12202254 L28.9506475,2.76190164 L30.6028566,2.76190164 L30.6028566,4.08120287 L28.9506475,4.08120287 L28.9506475,6.75679508 C28.9506475,7.05271311 29.0143521,7.25615676 29.1417613,7.36712602 C29.2691704,7.47809529 29.489054,7.53357992 29.8014119,7.53357992 L30.5658668,7.53357992 L30.5658668,8.87754098 L29.4931639,8.87754098 Z"
                      id="Path"></path>
                <path d="M32.8099119,1.81249795 C32.5222138,1.81249795 32.2858904,1.72618852 32.1009416,1.55356967 C31.9159928,1.38095082 31.8235184,1.16312227 31.8235184,0.900084016 C31.8235184,0.637045765 31.9159928,0.421272199 32.1009416,0.25276332 C32.2858904,0.0842544399 32.5222138,0 32.8099119,0 C33.09761,0 33.3339334,0.0842544399 33.5188822,0.25276332 C33.7038309,0.421272199 33.7963053,0.637045765 33.7963053,0.900084016 C33.7963053,1.16312227 33.7038309,1.38095082 33.5188822,1.55356967 C33.3339334,1.72618852 33.09761,1.81249795 32.8099119,1.81249795 Z M32.0207971,8.87754098 L32.0207971,2.76190164 L33.5990266,2.76190164 L33.5990266,8.87754098 L32.0207971,8.87754098 Z"
                      id="Shape"></path>
                <polygon id="Path"
                         points="36.9034447 8.87754098 34.6593996 2.76190164 36.3116086 2.76190164 37.8651783 7.3856209 39.418748 2.76190164 41.070957 2.76190164 38.814582 8.87754098"></polygon>
                <path d="M45.0042008,9.0255 C44.4123648,9.0255 43.8801233,8.8898709 43.4074764,8.6186127 C42.9348296,8.34735451 42.5608221,7.97129201 42.2854539,7.4904252 C42.0100857,7.0095584 41.8724016,6.4526571 41.8724016,5.81972131 C41.8724016,5.18678552 42.0121407,4.62988422 42.2916189,4.14901742 C42.571097,3.66815061 42.9471595,3.29208811 43.4198064,3.02082992 C43.8924532,2.74957172 44.4246947,2.61394262 45.0165307,2.61394262 C45.6001469,2.61394262 46.1282783,2.74957172 46.6009252,3.02082992 C47.0735721,3.29208811 47.4475796,3.66815061 47.7229477,4.14901742 C47.9983159,4.62988422 48.136,5.18678552 48.136,5.81972131 C48.136,6.4526571 47.9983159,7.0095584 47.7229477,7.4904252 C47.4475796,7.97129201 47.0715171,8.34735451 46.5947602,8.6186127 C46.1180034,8.8898709 45.5878169,9.0255 45.0042008,9.0255 Z M45.0042008,7.6568791 C45.4151981,7.6568791 45.7727657,7.50275512 46.0769037,7.19450717 C46.3810417,6.88625922 46.5331107,6.42799727 46.5331107,5.81972131 C46.5331107,5.21144536 46.3810417,4.7531834 46.0769037,4.44493545 C45.7727657,4.1366875 45.4193081,3.98256352 45.0165307,3.98256352 C44.5973135,3.98256352 44.2376909,4.1366875 43.9376629,4.44493545 C43.6376349,4.7531834 43.4876209,5.21144536 43.4876209,5.81972131 C43.4876209,6.42799727 43.6376349,6.88625922 43.9376629,7.19450717 C44.2376909,7.50275512 44.5932036,7.6568791 45.0042008,7.6568791 Z"
                      id="Shape"></path>
            </g>
            <g id="€" transform="translate(3.6, 4)" fill="#FFFFFF" fill-rule="nonzero">
                <path d="M0,5.33603043 L0,4.48226556 L0.876232365,4.48226556 C0.861254034,4.34746058 0.853764869,4.2126556 0.853764869,4.07785062 C0.853764869,3.93555648 0.861254034,3.79700692 0.876232365,3.66220194 L0,3.66220194 L0,2.79720332 L1.01103734,2.79720332 C1.22073398,1.95092762 1.64199954,1.27315814 2.27483402,0.763894882 C2.90766851,0.254631627 3.70713693,0 4.67323928,0 C5.61687414,0 6.39013047,0.234036422 6.9930083,0.702109267 C7.59588612,1.17018211 7.97221669,1.82735639 8.122,2.67363209 L6.53804149,2.67363209 C6.44068234,2.24674965 6.232858,1.9116095 5.91456846,1.66821162 C5.59627893,1.42481374 5.17875795,1.3031148 4.66200553,1.3031148 C4.13027478,1.3031148 3.68279714,1.4341752 3.31957261,1.69629599 C2.95634809,1.95841678 2.68861042,2.32538589 2.51635961,2.79720332 L4.85297925,2.79720332 L4.85297925,3.66220194 L2.33661964,3.66220194 C2.32913047,3.79700692 2.32538589,3.93555648 2.32538589,4.07785062 C2.32538589,4.22014477 2.32913047,4.35494975 2.33661964,4.48226556 L4.85297925,4.48226556 L4.85297925,5.33603043 L2.51635961,5.33603043 C2.68112125,5.81533702 2.94698663,6.18605071 3.31395574,6.44817151 C3.68092485,6.7102923 4.13027478,6.8413527 4.66200553,6.8413527 C5.17875795,6.8413527 5.59627893,6.72714292 5.91456846,6.49872337 C6.232858,6.27030383 6.44068234,5.95388658 6.53804149,5.54947165 L8.122,5.54947165 C7.97221669,6.35830152 7.59588612,6.99113601 6.9930083,7.4479751 C6.39013047,7.9048142 5.61687414,8.13323375 4.67323928,8.13323375 C3.70713693,8.13323375 2.90579622,7.88047441 2.26921715,7.37495574 C1.63263808,6.86943707 1.20950023,6.1897953 0.999803596,5.33603043 L0,5.33603043 Z"
                      id="Path"></path>
            </g>
        </g>
    </g>
</svg>