<?xml version="1.0" encoding="UTF-8"?>
<svg xmlns:xlink="http://www.w3.org/1999/xlink" width="82px" height="24px" viewBox="0 0 82 24" version="1.1"
     xmlns="http://www.w3.org/2000/svg">
    <title>logo/bizum</title>
    <g id="logo/bizum" stroke="none" stroke-width="1" fill="none" fill-rule="evenodd">
        <g id="Bizum" transform="translate(1, 0)" fill="#05C0C7">
            <path d="M39.9083386,8.55046767 C39.2185385,8.55046767 38.6614051,9.10766775 38.6614051,9.77100117 L38.6614051,18.9785358 C38.6614051,19.6684026 39.2185385,20.2256693 39.9083386,20.2256693 C40.5981387,20.2256693 41.1552721,19.6684026 41.1552721,18.9785358 L41.1552721,9.77100117 C41.1552721,9.10766775 40.5981387,8.55046767 39.9083386,8.55046767 Z M39.9082719,3.96006035 C39.1389385,3.96006035 38.5022051,4.5968871 38.5022051,5.36639388 C38.5022051,6.13589399 39.1389385,6.79926742 39.9082719,6.79926742 C40.6776721,6.79926742 41.3144055,6.16242733 41.3144055,5.36639388 C41.3144055,4.5968871 40.6776721,3.96006035 39.9082719,3.96006035 Z M52.0593403,9.77106784 C52.0593403,9.0015344 51.4491403,8.70966769 50.8920068,8.70966769 L44.7103393,8.70966769 C44.1001392,8.70966769 43.6226058,9.18726776 43.6226058,9.77106784 C43.6226058,10.3813346 44.1001392,10.8590013 44.7103393,10.8590013 L48.7695399,10.8590013 L43.5164725,18.1825357 C43.3572724,18.3948024 43.2777391,18.6866691 43.2777391,18.9254691 C43.2777391,19.6950026 43.8879392,20.119536 44.4185392,20.119536 L50.9716068,20.119536 C51.5818069,20.119536 52.0593403,19.6419359 52.0593403,19.0316025 C52.0593403,18.4213357 51.5818069,17.9437357 50.9716068,17.9437357 L46.5674729,17.9437357 L51.714407,10.7793347 C51.9797403,10.4078679 52.0593403,10.0894679 52.0593403,9.77106784 L52.0593403,9.77106784 Z M33.8593377,15.5556687 C33.8593377,17.0681355 33.196071,17.996869 31.6838041,17.996869 C30.1716039,17.996869 29.5348705,17.0681355 29.5348705,15.5556687 L29.5348705,10.8590013 L31.7899375,10.8590013 C33.6205377,10.8590013 33.8593377,11.8673348 33.8593377,12.9818016 L33.8593377,15.5556687 Z M36.3532048,12.928735 C36.3532048,10.3548679 35.0001379,8.68320102 31.8430041,8.68320102 L29.5614038,8.68320102 L29.5614038,5.20718719 C29.5614038,4.51728709 29.0042704,3.96006035 28.3410036,3.96006035 C27.6512035,3.96006035 27.0940701,4.51728709 27.0940701,5.20718719 L27.0940701,15.5556687 C27.0940701,18.1295357 28.4736036,20.225736 31.7368708,20.225736 C34.9736046,20.225736 36.3797381,18.1030024 36.3797381,15.5556687 L36.3797381,12.928735 L36.3532048,12.928735 L36.3532048,12.928735 Z M61.7960084,8.55046767 C61.106275,8.55046767 60.5490749,9.10766775 60.5490749,9.79753451 L60.5490749,15.555602 C60.5490749,17.0680689 59.8858081,17.9967357 58.3736079,17.9967357 C56.861341,17.9967357 56.2246076,17.0680689 56.2246076,15.555602 L56.2246076,9.79753451 C56.2246076,9.10766775 55.6674742,8.55046767 55.0042074,8.55046767 C54.3144073,8.55046767 53.7572739,9.10766775 53.7572739,9.79753451 L53.7572739,15.555602 C53.7572739,18.1294024 55.1368741,20.2256693 58.4001412,20.2256693 C61.636875,20.2256693 63.0429419,18.102869 63.0429419,15.555602 L63.0429419,9.79753451 C63.0164752,9.10766775 62.4592752,8.55046767 61.7960084,8.55046767 L61.7960084,8.55046767 Z M80.7120111,13.2472017 C80.7120111,10.6733346 79.5186776,8.57706767 76.2820105,8.57706767 C74.8226769,8.57706767 73.7880101,9.00166773 73.0713433,9.71806783 C72.3553432,9.02820107 71.3206764,8.57706767 69.8613429,8.57706767 C66.6245424,8.57706767 65.4306756,10.699868 65.4306756,13.2472017 L65.4306756,19.0052025 C65.4306756,19.6950693 65.987809,20.252336 66.6510757,20.252336 C67.3406758,20.252336 67.8980093,19.6950693 67.8980093,19.0052025 L67.8980093,13.2472017 C67.8980093,11.7347348 68.3753427,10.8060013 69.8613429,10.8060013 C71.3733431,10.8060013 71.8246765,11.7347348 71.8246765,13.2472017 L71.8246765,19.0052025 C71.8246765,19.6950693 72.3820099,20.252336 73.0446767,20.252336 C73.7346768,20.252336 74.2920102,19.6950693 74.2920102,19.0052025 L74.2920102,13.2472017 C74.2920102,11.7347348 74.7693436,10.8060013 76.2553438,10.8060013 C77.767344,10.8060013 78.2186774,11.7347348 78.2186774,13.2472017 L78.2186774,19.0052025 C78.2186774,19.6950693 78.7753441,20.252336 79.4386776,20.252336 C80.1286777,20.252336 80.6860111,19.6950693 80.6860111,19.0052025 L80.7120111,13.2472017 L80.7120111,13.2472017 Z M4.41044688,8.577001 C5.28596034,9.21386776 6.50636052,9.0281344 7.14306727,8.15246761 L9.42473427,4.99484716 C10.0614677,4.11920703 9.87573433,2.89862019 9.00026754,2.26178677 C8.12473408,1.62496001 6.90433391,1.81070004 6.26758715,2.68634016 L3.95942682,5.84395395 C3.34922673,6.71960074 3.53494009,7.94020091 4.41044688,8.577001 Z M14.8634684,4.11920703 C13.9879349,3.48238028 12.7675347,3.6681203 12.1308013,4.54376043 L2.95123334,17.1742022 C2.31449992,18.049869 2.50021328,19.2704692 3.37572007,19.9072693 C4.25122686,20.544136 5.4716337,20.3584027 6.10836713,19.4827359 L15.2879351,6.85226742 C15.9512019,5.97663397 15.7389352,4.75604046 14.8634684,4.11920703 Z M3.53493343,3.11091356 C4.17166685,2.23527343 3.98594682,1.01467993 3.11044003,0.377852502 C2.23493324,-0.258977589 1.0145264,-0.0732355624 0.377794976,0.802406562 C-0.258938448,1.67804669 -0.0732244211,2.89864019 0.80228637,3.53546695 C1.67779316,4.17230038 2.8982,3.98655368 3.53493343,3.11091356 Z M17.4634687,20.464536 C16.588002,19.8276693 15.3676018,20.0134693 14.7308684,20.8890694 C14.0941349,21.7647362 14.2798016,22.9853364 15.1553351,23.6221365 C16.0308685,24.2590032 17.2512687,24.0732032 17.8880021,23.1976031 C18.5247356,22.3219363 18.3390022,21.1013361 17.4634687,20.464536 Z M13.8818682,15.4494686 C13.0064014,14.8126686 11.7860013,14.9984019 11.1492678,15.8740687 L8.84106752,19.0316692 C8.20433409,19.9072693 8.39006745,21.1278695 9.26553424,21.7647362 C10.1410677,22.4015363 11.3614679,22.2158029 11.9982013,21.3401362 L14.3064016,18.1825357 C14.9431351,17.3069356 14.7574017,16.0863354 13.8818682,15.4494686 L13.8818682,15.4494686 Z"
                  id="Shape"></path>
        </g>
    </g>
</svg>