<svg class="w-8 h-8" viewBox="0 0 24 24" version="1.1" xmlns="http://www.w3.org/2000/svg" xmlns:xlink="http://www.w3.org/1999/xlink">
    <g id="ic/social/social_facebook" stroke="none" stroke-width="1" fill="none" fill-rule="evenodd">
        <path d="M24,12 C24,5.37257944 18.6274206,0 12,0 C5.37257944,0 0,5.37257944 0,12 C0,17.9895454 4.38822177,22.9539958 10.1250025,23.8542246 L10.1250025,15.4687538 L7.07813259,15.4687538 L7.07813259,12 L10.1250025,12 L10.1250025,9.35625814 C10.1250025,6.34874569 11.9165127,4.687507 14.6575758,4.687507 C15.9704863,4.687507 17.3437601,4.9218762 17.3437601,4.9218762 L17.3437601,7.87500192 L15.830582,7.87500192 C14.3398863,7.87500192 13.8750151,8.80001582 13.8750151,9.74900629 L13.8750151,12 L17.2031351,12 L16.6710978,15.4687538 L13.8749975,15.4687538 L13.8749975,23.8542246 C19.6117782,22.9539958 24,17.9895454 24,12" class="" id="Path" fill="#149FF9" fill-rule="nonzero"/>
    </g>
</svg>