<svg xmlns="http://www.w3.org/2000/svg" xmlns:xlink="http://www.w3.org/1999/xlink" class="-rotate-90 group-hover:fill-primary transition-colors" width="24" height="24">
    <path transform="matrix(-1 0 0 1 21 5.33839)" d="M7.3634596 0.29289326C7.7561116 0.68554503 7.7561116 1.314455 7.3682117 1.7023549L3.3559999 5.6609998L17.004251 5.6616063C17.556536 5.6616063 18.004251 6.1093216 18.004251 6.6616063C18.004251 7.213891 17.556536 7.6616063 17.004251 7.6616063L3.474 7.6609998L7.3767128 11.61138C7.7632217 12.002577 7.7613225 12.632456 7.3724623 13.021317C6.9800348 13.413744 6.3506761 13.413744 5.9624991 13.025567L0.2886427 7.2829008C-0.097866014 6.8917031 -0.095967121 6.2618241 0.29289326 5.8729634L0.30189565 5.8645625L5.95403 0.28814146C6.3453054 -0.097892635 6.9747963 -0.095770352 7.3634596 0.29289326Z" fill-rule="evenodd"/>
</svg>