<svg class="w-8 fill-primary" viewBox="0 0 24 24" version="1.1" xmlns="http://www.w3.org/2000/svg" xmlns:xlink="http://www.w3.org/1999/xlink">
    <g id="ic/secure" stroke="none" stroke-width="1" fill-rule="evenodd">
        <path d="M20,2 C21.1045695,2 22,2.8954305 22,4 L22,20 C22,21.1045695 21.1045695,22 20,22 L4,22 C2.8954305,22 2,21.1045695 2,20 L2,4 C2,2.8954305 2.8954305,2 4,2 L13,1.99992247 L13,7.11662145 L14.9831116,5.04401529 L17,7.15192247 L17,1.99992247 L20,2 Z M8.5,16 L6.5,16 C5.67157288,16 5,16.6715729 5,17.5 C5,18.3284271 5.67157288,19 6.5,19 L8.5,19 C9.32842712,19 10,18.3284271 10,17.5 C10,16.6715729 9.32842712,16 8.5,16 Z" id="Combined-Shape"/>
    </g>
</svg>