<svg class="w-5 h-5 z-10 absolute left-4 " viewBox="0 0 24 24" version="1.1" xmlns="http://www.w3.org/2000/svg" xmlns:xlink="http://www.w3.org/1999/xlink">
    <g id="ic/icons/search" stroke="none" stroke-width="1" fill="none" fill-rule="evenodd">
        <path d="M10.5,2 C14.6421356,2 18,5.35786438 18,9.5 C18,13.6421356 14.6421356,17 10.5,17 C6.35786438,17 3,13.6421356 3,9.5 C3,5.35786438 6.35786438,2 10.5,2 Z M10.5,3 C6.91014913,3 4,5.91014913 4,9.5 C4,13.0898509 6.91014913,16 10.5,16 C14.0898509,16 17,13.0898509 17,9.5 C17,5.91014913 14.0898509,3 10.5,3 Z" id="Oval" fill="#000000" fill-rule="nonzero"/>
        <path d="M14.6673269,14.6363584 C14.8723666,14.45139 15.1885307,14.467661 15.3734992,14.6727007 L19.8866481,19.6755806 C20.0716165,19.8806203 20.0553455,20.1967844 19.8503058,20.3817528 C19.645266,20.5667213 19.329102,20.5504503 19.1441335,20.3454105 L14.6309846,15.3425307 C14.4460162,15.1374909 14.4622872,14.8213268 14.6673269,14.6363584 Z" id="Path-10" fill="#000000" fill-rule="nonzero"/>
    </g>
</svg>