<?xml version="1.0" encoding="UTF-8"?>
<svg width="24px" height="24px" viewBox="0 0 24 24" version="1.1" xmlns="http://www.w3.org/2000/svg" xmlns:xlink="http://www.w3.org/1999/xlink">
    <title>ic/componentes_software</title>
    <g id="ic/componentes_software" stroke="none" stroke-width="1" fill="none" fill-rule="evenodd">
        <path d="M14.5,5 C16.5398918,5 18.2231411,6.52696848 18.4690832,8.50024088 L20,8.5 C20.2761424,8.5 20.5,8.61192881 20.5,8.75 L20.5,9.25 C20.5,9.38807119 20.2761424,9.5 20,9.5 L18.5,9.5 L18.5,11.5 L20,11.5 C20.2761424,11.5 20.5,11.6119288 20.5,11.75 L20.5,12.25 C20.5,12.3880712 20.2761424,12.5 20,12.5 L18.5,12.5 L18.5,14.499 L20,14.5 C20.2761424,14.5 20.5,14.6119288 20.5,14.75 L20.5,15.25 C20.5,15.3880712 20.2761424,15.5 20,15.5 L18.4690832,15.4997591 C18.2231411,17.4730315 16.5398918,19 14.5,19 L8.5,19 C6.46045147,19 4.7774255,17.4735454 4.53104114,15.5007553 L3,15.5 C2.72385763,15.5 2.5,15.3880712 2.5,15.25 L2.5,14.75 C2.5,14.6119288 2.72385763,14.5 3,14.5 L4.5,14.5 L4.5,12.5 L3,12.5 C2.72385763,12.5 2.5,12.3880712 2.5,12.25 L2.5,11.75 C2.5,11.6119288 2.72385763,11.5 3,11.5 L4.5,11.5 L4.5,9.5 L3,9.5 C2.72385763,9.5 2.5,9.38807119 2.5,9.25 L2.5,8.75 C2.5,8.61192881 2.72385763,8.5 3,8.5 L4.53091685,8.50024088 C4.77685893,6.52696848 6.46010817,5 8.5,5 L14.5,5 Z M14.5,6 L8.5,6 C6.84314575,6 5.5,7.34314575 5.5,9 L5.5,15 C5.5,16.6568542 6.84314575,18 8.5,18 L14.5,18 C16.1568542,18 17.5,16.6568542 17.5,15 L17.5001046,12.2551652 L17.5,11.75 L17.5,11.745 L17.5001046,9.25516525 L17.499,8.971 L17.4949073,8.82372721 C17.4036609,7.24891996 16.0976809,6 14.5,6 Z M13.5,7 C15.1568542,7 16.5,8.34314575 16.5,10 L16.5,14 C16.5,15.6568542 15.1568542,17 13.5,17 L9.5,17 C7.84314575,17 6.5,15.6568542 6.5,14 L6.5,10 C6.5,8.34314575 7.84314575,7 9.5,7 L13.5,7 Z M13.5,8 L9.5,8 C8.3954305,8 7.5,8.8954305 7.5,10 L7.5,14 C7.5,15.1045695 8.3954305,16 9.5,16 L13.5,16 C14.6045695,16 15.5,15.1045695 15.5,14 L15.5,10 C15.5,8.8954305 14.6045695,8 13.5,8 Z" id="Combined-Shape" fill="#000000" fill-rule="nonzero"></path>
        <g id="Group" transform="translate(8, 3)" fill="#000000" fill-rule="nonzero">
            <path d="M0.75,0 C0.888071187,0 1,0.223857625 1,0.5 L1,2.5 C1,2.77614237 0.888071187,3 0.75,3 L0.25,3 C0.111928813,3 0,2.77614237 0,2.5 L0,0.5 C0,0.223857625 0.111928813,0 0.25,0 L0.75,0 Z" id="Path"></path>
            <path d="M0.75,15 C0.888071187,15 1,15.2238576 1,15.5 L1,17.5 C1,17.7761424 0.888071187,18 0.75,18 L0.25,18 C0.111928813,18 0,17.7761424 0,17.5 L0,15.5 C0,15.2238576 0.111928813,15 0.25,15 L0.75,15 Z" id="Rectangle-Copy-3"></path>
            <path d="M3.75,0 C3.88807119,0 4,0.223857625 4,0.5 L4,2.5 C4,2.77614237 3.88807119,3 3.75,3 L3.25,3 C3.11192881,3 3,2.77614237 3,2.5 L3,0.5 C3,0.223857625 3.11192881,0 3.25,0 L3.75,0 Z" id="Rectangle-Copy"></path>
            <path d="M3.75,15 C3.88807119,15 4,15.2238576 4,15.5 L4,17.5 C4,17.7761424 3.88807119,18 3.75,18 L3.25,18 C3.11192881,18 3,17.7761424 3,17.5 L3,15.5 C3,15.2238576 3.11192881,15 3.25,15 L3.75,15 Z" id="Rectangle-Copy-4"></path>
            <path d="M6.75,0 C6.88807119,0 7,0.223857625 7,0.5 L7,2.5 C7,2.77614237 6.88807119,3 6.75,3 L6.25,3 C6.11192881,3 6,2.77614237 6,2.5 L6,0.5 C6,0.223857625 6.11192881,0 6.25,0 L6.75,0 Z" id="Rectangle-Copy-2"></path>
            <path d="M6.75,15 C6.88807119,15 7,15.2238576 7,15.5 L7,17.5 C7,17.7761424 6.88807119,18 6.75,18 L6.25,18 C6.11192881,18 6,17.7761424 6,17.5 L6,15.5 C6,15.2238576 6.11192881,15 6.25,15 L6.75,15 Z" id="Rectangle-Copy-5"></path>
        </g>
    </g>
</svg>