<?xml version="1.0" encoding="UTF-8"?>
<svg xmlns:xlink="http://www.w3.org/1999/xlink" width="82px" height="24px" viewBox="0 0 82 24" version="1.1"
     xmlns="http://www.w3.org/2000/svg">
    <title>logo/visa</title>
    <g id="logo/visa" stroke="none" stroke-width="1" fill="none" fill-rule="evenodd">
        <path d="M48.9157257,4 C45.4366767,4 42.3274575,5.81754147 42.3274575,9.17482777 C42.3274575,13.0254256 47.8415516,13.291359 47.8415516,15.2260496 C47.8415516,16.0406562 46.9155055,16.7697488 45.3331832,16.7697488 C43.0882082,16.7697488 41.4102402,15.7509963 41.4102402,15.7509963 L40.6921622,19.1394235 C40.6921622,19.1394235 42.6251852,20 45.1914314,20 C48.9951852,20 51.9886486,18.0934845 51.9886486,14.6783651 C51.9886486,10.6092867 46.4515015,10.351262 46.4515015,8.55596404 C46.4515015,7.91782261 47.2117618,7.21888226 48.7891792,7.21888226 C50.5691692,7.21888226 52.021021,7.95983812 52.021021,7.95983812 L52.7238939,4.68757144 C52.7238939,4.68757144 51.1435335,4 48.9152352,4 L48.9152352,4 L48.9157257,4 Z M17.0843644,4.24715005 L17,4.74095585 C17,4.74095585 18.4636236,5.01084371 19.7820621,5.54963082 C21.4796496,6.16701165 21.6003103,6.52686212 21.8862663,7.64299175 L25.0013714,19.7449411 L29.1774074,19.7449411 L35.6106807,4.24715005 L31.4444545,4.24715005 L27.3106006,14.7841453 L25.6238038,5.85214248 C25.4692993,4.82992987 24.6854955,4.24665575 23.7265866,4.24665575 C23.7265866,4.24665575 17.0848549,4.24665575 17.0848549,4.24665575 L17.0843644,4.24715005 Z M37.2861962,4.24715005 L34.0180581,19.7449411 L37.991031,19.7449411 L41.2473974,4.24715005 L37.2861962,4.24715005 Z M59.4445946,4.24715005 C58.4866667,4.24715005 57.979009,4.76418796 57.6067267,5.66727424 L51.7860761,19.7449411 L55.9523023,19.7449411 L56.7581782,17.3984986 L61.8337738,17.3984986 L62.3237738,19.7449411 L66,19.7449411 L62.7931732,4.24715005 L59.4445946,4.24715005 Z M59.9865866,8.43436621 L61.2216416,14.2498069 L57.9132833,14.2498069 L59.9870771,8.43436621 L59.9870771,8.43436621 L59.9865866,8.43436621 Z"
              id="path3789" fill="#1434CB" fill-rule="nonzero"></path>
    </g>
</svg>