<?xml version="1.0" encoding="UTF-8"?>
<svg xmlns:xlink="http://www.w3.org/1999/xlink" width="82px" height="24px" viewBox="0 0 82 24" version="1.1"
     xmlns="http://www.w3.org/2000/svg">
    <title>logo/sequra</title>
    <g id="logo/sequra" stroke="none" stroke-width="1" fill="none" fill-rule="evenodd">
        <g id="62b803c519da72c35fbd72a2_Logo" transform="translate(0, 3)" fill="#00C2A3">
            <path d="M56.1914298,11.1961337 C56.3672403,10.7825191 56.4575277,10.3392362 56.4571278,9.89163918 L56.4571278,4.01089387 C56.4571278,3.68359157 56.729805,3.41826062 57.0661694,3.41826062 L58.6128531,3.41826062 C58.9492705,3.41826058 59.2220414,3.68354001 59.2222222,4.01089387 L59.2222222,9.89323314 C59.197331,13.2422805 56.400196,15.9444444 52.9583333,15.9444444 C49.5164707,15.9444444 46.7193357,13.2422805 46.6944444,9.89323314 L46.6944444,4.00961871 C46.6944444,3.68226479 46.9670686,3.41684266 47.303486,3.41666667 L48.8511525,3.41666667 C49.1875699,3.41684266 49.4601941,3.68226479 49.4601941,4.00961871 L49.4601941,9.89163918 C49.4589622,11.516062 50.6375618,12.9149476 52.2747929,13.2323001 C53.9120239,13.5496526 55.5515479,12.6970178 56.1901193,11.1961337 L56.1914298,11.1961337 Z"
                  id="Path_1" fill-rule="nonzero"></path>
            <path d="M74.3295393,13.095318 C74.7765246,13.279272 75.2550417,13.372818 75.7378458,13.3706672 L75.7378458,13.3655431 C77.6112842,13.3473715 79.1659228,11.9006126 79.3331106,10.0197613 C79.5002984,8.13890997 78.2255747,6.43664518 76.3851785,6.08309545 C74.5447822,5.72954573 72.7382141,6.8398783 72.2073003,8.65085595 C71.6763866,10.4618336 72.5940699,12.3835385 74.3295393,13.095 L74.3295393,13.095318 Z M69.4722222,9.68253365 C69.4873447,6.20978727 72.2924251,3.40679598 75.7378458,3.42157659 L75.7378458,3.41673665 C77.3935378,3.40886498 78.9843202,4.06528208 80.1591604,5.24120983 C81.3340005,6.41713758 81.9963319,8.01591997 82,9.68475903 L82,15.3531283 C82,15.5099259 81.9383448,15.6603303 81.8283742,15.7712327 C81.7184037,15.8821351 81.5692161,15.9444444 81.4136524,15.9444444 L80.0400409,15.9444444 C79.7160359,15.9444444 79.453378,15.6797032 79.453378,15.3531283 L79.453378,14.7239806 C77.5547221,16.122965 75.0394453,16.3347088 72.9368517,15.272562 C70.8342581,14.2104153 69.497209,12.0526293 69.472853,9.68221574 L69.4722222,9.68253365 Z"
                  id="Path_2"></path>
            <path d="M62.1501832,5.25387241 C62.7165488,4.67282051 63.3877095,4.21187767 64.1257631,3.89707455 L64.1257631,3.89234922 C64.8651841,3.57826502 65.6570499,3.41666667 66.4566545,3.41666667 C66.864174,3.4168406 67.1944444,3.75782428 67.1944444,4.1783888 L67.1944444,5.29860547 C67.1944444,5.71911901 66.8641246,6.06001259 66.4566545,6.06001259 C65.5213413,6.05866901 64.6238608,6.44102929 63.9618437,7.12289533 C63.3227502,7.7747306 62.9529018,8.65652911 62.9297924,9.58352875 L62.9297924,15.358819 C62.9297925,15.514191 62.8699647,15.6631948 62.7634792,15.7730299 C62.6569938,15.882865 62.5125796,15.9444444 62.3620269,15.9444444 L60.9291819,15.9444444 C60.7785763,15.9446113 60.6340837,15.8829855 60.5275322,15.7731414 C60.4209806,15.6632973 60.3611111,15.5142457 60.3611111,15.358819 L60.3611111,9.23290975 L60.3827839,9.23290975 C60.4867599,7.72997306 61.1147285,6.31677468 62.1504884,5.25481748 L62.1501832,5.25387241 Z"
                  id="Path_3" fill-rule="nonzero"></path>
            <path d="M44.986418,11.0048577 C44.6290145,12.5923562 43.8509379,14.0509894 42.7359871,15.2236623 C43.4704962,15.4754701 44.2406675,15.6040349 45.0160841,15.6042793 C45.3067443,15.5971532 45.5481674,15.8299171 45.5555556,16.1244014 L45.5555556,17.7014299 C45.5481674,17.9959142 45.3067443,18.2286781 45.0160841,18.221552 C41.1788397,18.2290664 37.7159685,16.0103796 36.2381457,12.5985485 C35.7633295,11.4988784 35.5182818,10.3115431 35.5184206,9.11124731 C35.5258077,8.81663234 35.7674297,8.5838157 36.0582144,8.5911252 L37.7027478,8.5911252 C37.9934061,8.58418396 38.2346823,8.81709159 38.2418967,9.11157402 C38.2510165,10.8534242 38.9688216,12.5143398 40.2259778,13.7025011 C40.2488723,13.7243907 40.273379,13.7453001 40.2978858,13.7678431 C40.3223926,13.7903861 40.3372256,13.8005141 40.3565731,13.81979 C42.0195995,12.3354248 42.7749068,10.0650264 42.3380745,7.86354232 C41.8606512,5.64276876 40.2849683,3.82935991 38.1712785,3.06809484 C35.120745,1.89677192 31.6763982,3.02519193 29.880251,5.7843607 C28.1822008,8.50712293 28.8036012,12.0913738 31.3158318,14.0648224 C32.5617035,15.0664749 34.1066119,15.6093178 35.697062,15.6042793 C35.9229438,15.5989804 36.110451,15.7798998 36.1162568,16.0087461 L36.1162568,17.8177386 C36.1158546,17.9261884 36.0714236,18.0296917 35.9934005,18.1039365 C35.9129972,18.1804221 35.8067038,18.2227518 35.6964171,18.2222222 C31.0607679,18.2306999 27.0977651,15.0096673 26.3235446,10.6052915 C25.5625449,6.20058908 28.2305583,1.914809 32.6211398,0.488393708 C37.0133336,-0.947496172 41.8405226,0.869990836 44.0590302,4.79508322 C45.1224306,6.67561245 45.45312,8.89113977 44.9860956,11.0061646 L44.986418,11.0048577 Z"
                  id="Path_4" fill-rule="nonzero"></path>
            <path d="M10.1158725,9.80945476 C10.5320242,10.102064 10.8695843,10.4854147 11.100663,10.9278338 L11.0956539,10.9300751 C11.3346273,11.421215 11.4302976,11.965272 11.3724906,12.5043865 C11.3463294,13.1324678 11.1224536,13.7382397 10.730323,14.2419883 C10.3499704,14.7092287 9.85991761,15.0837527 9.30005593,15.3350734 C8.6924723,15.6022901 8.04583239,15.7788282 7.38256964,15.8585631 C6.67894865,15.9466715 5.96789768,15.967051 5.26004388,15.9193968 C4.17276758,15.8717616 3.10243456,15.6430507 2.09695957,15.2435027 L2.0906147,15.2435027 C1.32008804,14.9069012 0.640261549,14.4054771 0.103334848,13.7777313 C0.0235859329,13.6868939 -0.0125241416,13.5680295 0.00387612627,13.4503408 C0.0202763941,13.3326521 0.0876670124,13.2270465 0.189491494,13.1594691 L1.58636456,12.2370385 C1.7970779,12.0977152 2.08323317,12.1318555 2.25190796,12.3164425 C2.59368673,12.6732855 2.98532947,12.9830606 3.41569056,13.236952 C4.02308021,13.5670861 4.70511659,13.7505943 5.40297041,13.771648 L5.41165287,13.771648 C5.76462373,13.7976508 6.11935341,13.792077 6.47124604,13.7549987 C6.81026522,13.7242456 7.14237585,13.6439111 7.45603654,13.5167869 C7.72791309,13.4140473 7.97175578,13.2531847 8.16899949,13.0464465 C8.34160206,12.8605441 8.44126208,12.6227948 8.45084526,12.3740744 L8.45084526,12.3596664 C8.47960038,12.1269473 8.41958319,11.8921102 8.28187137,11.6985004 C8.12277496,11.4965421 7.92303256,11.3272424 7.69447005,11.2006248 C7.41201908,11.0374247 7.10903356,10.9093904 6.79283073,10.8196139 L6.63320718,10.7760698 C6.47358362,10.7306046 6.31262431,10.6844991 6.15066317,10.6428761 C6.00139177,10.6034943 5.85011673,10.5653932 5.69717199,10.5295333 C5.03463405,10.370512 4.40014712,10.194628 3.7937112,10.0018813 C3.2300578,9.83166799 2.69088173,9.59438112 2.1887932,9.29557031 C1.74543537,9.03080257 1.37420731,8.66861866 1.1058242,8.23898546 C0.836420472,7.75745123 0.726786794,7.20852893 0.791586197,6.66563456 L0.791586197,6.65378801 C0.827265347,6.09525628 1.03818817,5.56010649 1.39668636,5.1185382 C1.75578606,4.67604321 2.21701671,4.31941678 2.74413624,4.0766815 C3.31166946,3.8167988 3.91404557,3.63362083 4.53405726,3.53238021 C5.19372479,3.42360436 5.86465032,3.39135468 6.53235715,3.43632704 C7.51821451,3.49045763 8.48397173,3.72613125 9.37686224,4.13047127 C10.0615441,4.43987507 10.6501863,4.91519601 11.0846339,5.50947459 C11.1358995,5.59213678 11.1506275,5.69100036 11.125548,5.78411766 C11.1004686,5.87723495 11.0376571,5.95690069 10.9510577,6.00542912 L9.29671652,6.93618432 C9.13118367,7.02961375 8.91806866,6.9781028 8.81851374,6.82060034 C8.52116536,6.44148111 8.13648055,6.13335564 7.69447005,5.92026198 C7.24044418,5.69951781 6.74130268,5.57730659 6.23247859,5.56230383 L6.2251319,5.56230383 C5.90772573,5.54167614 5.58893462,5.55326688 5.27406939,5.59688298 C4.97698377,5.6312701 4.68666537,5.70676297 4.41216898,5.82100704 C4.17447865,5.91722725 3.96065693,6.0604827 3.7846948,6.24139974 C3.63212181,6.40472178 3.54429501,6.61427606 3.53657702,6.83340743 L3.53657702,6.84045133 C3.52771626,6.93176325 3.54050211,7.0238143 3.57397835,7.10972038 C3.60728849,7.19889836 3.66025148,7.28014659 3.72926068,7.34793224 C3.81810394,7.43466205 3.91414948,7.51432806 4.0164495,7.58614409 C4.14917499,7.67908171 4.29151399,7.75869069 4.44122181,7.8237156 L4.44756667,7.8237156 C4.80293329,7.99182745 5.17137458,8.13323693 5.54957029,8.24666971 C5.97100319,8.37281954 6.40946705,8.48296051 6.86496188,8.57709261 C7.46698504,8.71347635 8.0603671,8.8828072 8.64219316,9.08425334 C9.16752068,9.25614233 9.66395236,9.50043764 10.1158725,9.80945476 L10.1158725,9.80945476 Z"
                  id="Path_5" fill-rule="nonzero"></path>
            <path d="M19.3247322,5.84704062 C17.5057028,5.61115319 15.7726795,6.69070694 15.1824518,8.4273949 L15.1548473,8.50635586 L22.4902626,8.50635586 L22.4626581,8.4273949 C21.9921922,7.04074746 20.7761551,6.04078544 19.3247322,5.84704062 Z M23.5039256,5.55655417 C24.4951924,6.68999125 25.0458978,8.14204411 25.0555556,9.64775899 L25.0555556,10.321816 C25.0555556,10.4801265 24.9928111,10.6319822 24.8808977,10.7439547 C24.7689842,10.8559273 24.6171609,10.9188379 24.4588488,10.9188378 L15.2328461,10.9188378 C15.2839037,11.0715329 15.3452448,11.2205945 15.4164481,11.3649994 C15.9479583,12.4549975 16.9700277,13.2239273 18.1646417,13.4325379 C19.3592557,13.6411485 20.5814423,13.2641241 21.4509209,12.4187751 C21.6513409,12.2119579 21.961521,12.1563845 22.2212791,12.2807539 L23.3813102,12.8883681 C23.5324123,12.9616398 23.6418632,13.099805 23.67861,13.2636642 C23.7153568,13.4275233 23.6753897,13.5991962 23.570048,13.7299764 C21.8772881,15.7275138 19.1206416,16.4613834 16.6587539,15.569889 C14.1968662,14.6783946 12.5492636,12.3496661 12.5279862,9.73144461 C12.5067088,7.11322309 14.1162468,4.75802549 16.5633206,3.82663846 C19.0103944,2.89525144 21.7786038,3.58422334 23.5036046,5.55398633 L23.5039256,5.55655417 Z"
                  id="Path_6"></path>
            <path d="M21.6206152,9.14376023 C21.6820863,9.14376023 21.6508431,9.08597676 21.6353776,9.05416667 L21.6958333,9.10436241 L21.6958333,9.16272955 L21.6082741,9.16805556 C21.5867163,9.15835202 21.5564103,9.14376023 21.6206152,9.14376023 Z"
                  id="Path_7" fill-rule="nonzero"></path>
            <path d="M15.9627037,9.14358838 C15.9012107,9.14358838 15.9324909,9.08591574 15.9480078,9.05416667 L15.8875,9.10426613 L15.8875,9.16252131 L15.9751829,9.16805556 C15.996611,9.15815217 16.026906,9.14358838 15.9627037,9.14358838 Z"
                  id="Path_8" fill-rule="nonzero"></path>
            <path d="M15.9627037,11.356074 C15.9012107,11.356074 15.9324909,11.4139309 15.9480078,11.4458333 L15.8875,11.3956141 L15.8875,11.3374868 L15.9751829,11.3319444 C15.996611,11.341407 16.026906,11.356074 15.9627037,11.356074 Z"
                  id="Path_9" fill-rule="nonzero"></path>
        </g>
    </g>
</svg>