<?xml version="1.0" encoding="UTF-8"?>
<svg xmlns:xlink="http://www.w3.org/1999/xlink" width="82px" height="24px" viewBox="0 0 82 24" version="1.1"
     xmlns="http://www.w3.org/2000/svg">
    <title>logo/transferencia</title>
    <g id="logo/transferencia" stroke="none" stroke-width="1" fill="none" fill-rule="evenodd">
        <path d="M10,4 C14.418278,4 18,7.581722 18,12 C18,16.418278 14.418278,20 10,20 C5.581722,20 2,16.418278 2,12 C2,7.581722 5.581722,4 10,4 Z M14,15 L6,15 L6,16 L14,16 L14,15 Z M7.5,10 L6.5,10 L6.5,14.5 L7.5,14.5 L7.5,10 Z M9.5,10 L8.5,10 L8.5,14.5 L9.5,14.5 L9.5,10 Z M11.5,10 L10.5,10 L10.5,14.5 L11.5,14.5 L11.5,10 Z M13.5,10 L12.5,10 L12.5,14.5 L13.5,14.5 L13.5,10 Z M10,7 L6,8.5 L6,9.5 L14,9.5 L14,8.5 L10,7 Z"
              id="Combined-Shape" fill="#6ED4EE"></path>
        <g id="Group" transform="translate(21.261, 8.52)" fill="#000000" fill-rule="nonzero">
            <g id="transferencia">
                <path d="M2.313,6.48 C1.845,6.48 1.47,6.366 1.188,6.138 C0.906,5.91 0.765,5.505 0.765,4.923 L0.765,2.979 L0,2.979 L0,2.016 L0.765,2.016 L0.9,0.819 L1.917,0.819 L1.917,2.016 L3.123,2.016 L3.123,2.979 L1.917,2.979 L1.917,4.932 C1.917,5.148 1.9635,5.2965 2.0565,5.3775 C2.1495,5.4585 2.31,5.499 2.538,5.499 L3.096,5.499 L3.096,6.48 L2.313,6.48 Z"
                      id="Path"></path>
                <path d="M4.113,6.48 L4.113,2.016 L5.139,2.016 L5.247,2.853 C5.409,2.565 5.6295,2.3355 5.9085,2.1645 C6.1875,1.9935 6.516,1.908 6.894,1.908 L6.894,3.123 L6.57,3.123 C6.318,3.123 6.093,3.162 5.895,3.24 C5.697,3.318 5.5425,3.453 5.4315,3.645 C5.3205,3.837 5.265,4.104 5.265,4.446 L5.265,6.48 L4.113,6.48 Z"
                      id="Path"></path>
                <path d="M9.216,6.588 C8.832,6.588 8.517,6.5265 8.271,6.4035 C8.025,6.2805 7.842,6.117 7.722,5.913 C7.602,5.709 7.542,5.484 7.542,5.238 C7.542,4.824 7.704,4.488 8.028,4.23 C8.352,3.972 8.838,3.843 9.486,3.843 L10.62,3.843 L10.62,3.735 C10.62,3.429 10.533,3.204 10.359,3.06 C10.185,2.916 9.969,2.844 9.711,2.844 C9.477,2.844 9.273,2.8995 9.099,3.0105 C8.925,3.1215 8.817,3.285 8.775,3.501 L7.65,3.501 C7.68,3.177 7.7895,2.895 7.9785,2.655 C8.1675,2.415 8.412,2.2305 8.712,2.1015 C9.012,1.9725 9.348,1.908 9.72,1.908 C10.356,1.908 10.857,2.067 11.223,2.385 C11.589,2.703 11.772,3.153 11.772,3.735 L11.772,6.48 L10.791,6.48 L10.683,5.76 C10.551,6 10.3665,6.198 10.1295,6.354 C9.8925,6.51 9.588,6.588 9.216,6.588 Z M9.477,5.688 C9.807,5.688 10.0635,5.58 10.2465,5.364 C10.4295,5.148 10.545,4.881 10.593,4.563 L9.612,4.563 C9.306,4.563 9.087,4.6185 8.955,4.7295 C8.823,4.8405 8.757,4.977 8.757,5.139 C8.757,5.313 8.823,5.448 8.955,5.544 C9.087,5.64 9.261,5.688 9.477,5.688 Z"
                      id="Shape"></path>
                <path d="M12.87,6.48 L12.87,2.016 L13.887,2.016 L13.977,2.772 C14.115,2.508 14.3145,2.298 14.5755,2.142 C14.8365,1.986 15.144,1.908 15.498,1.908 C16.05,1.908 16.479,2.082 16.785,2.43 C17.091,2.778 17.244,3.288 17.244,3.96 L17.244,6.48 L16.092,6.48 L16.092,4.068 C16.092,3.684 16.014,3.39 15.858,3.186 C15.702,2.982 15.459,2.88 15.129,2.88 C14.805,2.88 14.5395,2.994 14.3325,3.222 C14.1255,3.45 14.022,3.768 14.022,4.176 L14.022,6.48 L12.87,6.48 Z"
                      id="Path"></path>
                <path d="M20.187,6.588 C19.791,6.588 19.443,6.5235 19.143,6.3945 C18.843,6.2655 18.603,6.087 18.423,5.859 C18.243,5.631 18.135,5.367 18.099,5.067 L19.26,5.067 C19.296,5.241 19.3935,5.3895 19.5525,5.5125 C19.7115,5.6355 19.917,5.697 20.169,5.697 C20.421,5.697 20.6055,5.646 20.7225,5.544 C20.8395,5.442 20.898,5.325 20.898,5.193 C20.898,5.001 20.814,4.8705 20.646,4.8015 C20.478,4.7325 20.244,4.665 19.944,4.599 C19.752,4.557 19.557,4.506 19.359,4.446 C19.161,4.386 18.9795,4.3095 18.8145,4.2165 C18.6495,4.1235 18.516,4.0035 18.414,3.8565 C18.312,3.7095 18.261,3.528 18.261,3.312 C18.261,2.916 18.4185,2.583 18.7335,2.313 C19.0485,2.043 19.491,1.908 20.061,1.908 C20.589,1.908 21.0105,2.031 21.3255,2.277 C21.6405,2.523 21.828,2.862 21.888,3.294 L20.799,3.294 C20.733,2.964 20.484,2.799 20.052,2.799 C19.836,2.799 19.6695,2.841 19.5525,2.925 C19.4355,3.009 19.377,3.114 19.377,3.24 C19.377,3.372 19.464,3.477 19.638,3.555 C19.812,3.633 20.043,3.705 20.331,3.771 C20.643,3.843 20.9295,3.9225 21.1905,4.0095 C21.4515,4.0965 21.66,4.2255 21.816,4.3965 C21.972,4.5675 22.05,4.812 22.05,5.13 C22.056,5.406 21.984,5.655 21.834,5.877 C21.684,6.099 21.468,6.273 21.186,6.399 C20.904,6.525 20.571,6.588 20.187,6.588 Z"
                      id="Path"></path>
                <path d="M23.274,6.48 L23.274,2.979 L22.662,2.979 L22.662,2.016 L23.274,2.016 L23.274,1.494 C23.274,0.954 23.4105,0.57 23.6835,0.342 C23.9565,0.114 24.327,0 24.795,0 L25.29,0 L25.29,0.981 L24.975,0.981 C24.777,0.981 24.636,1.02 24.552,1.098 C24.468,1.176 24.426,1.308 24.426,1.494 L24.426,2.016 L25.389,2.016 L25.389,2.979 L24.426,2.979 L24.426,6.48 L23.274,6.48 Z"
                      id="Path"></path>
                <path d="M28.467,6.588 C28.017,6.588 27.618,6.492 27.27,6.3 C26.922,6.108 26.649,5.838 26.451,5.49 C26.253,5.142 26.154,4.74 26.154,4.284 C26.154,3.822 26.2515,3.411 26.4465,3.051 C26.6415,2.691 26.9115,2.4105 27.2565,2.2095 C27.6015,2.0085 28.008,1.908 28.476,1.908 C28.914,1.908 29.301,2.004 29.637,2.196 C29.973,2.388 30.2355,2.6505 30.4245,2.9835 C30.6135,3.3165 30.708,3.687 30.708,4.095 C30.708,4.161 30.7065,4.23 30.7035,4.302 C30.7005,4.374 30.696,4.449 30.69,4.527 L27.297,4.527 C27.321,4.875 27.4425,5.148 27.6615,5.346 C27.8805,5.544 28.146,5.643 28.458,5.643 C28.692,5.643 28.8885,5.5905 29.0475,5.4855 C29.2065,5.3805 29.325,5.244 29.403,5.076 L30.573,5.076 C30.489,5.358 30.3495,5.6145 30.1545,5.8455 C29.9595,6.0765 29.7195,6.258 29.4345,6.39 C29.1495,6.522 28.827,6.588 28.467,6.588 Z M28.476,2.844 C28.194,2.844 27.945,2.9235 27.729,3.0825 C27.513,3.2415 27.375,3.483 27.315,3.807 L29.538,3.807 C29.52,3.513 29.412,3.279 29.214,3.105 C29.016,2.931 28.77,2.844 28.476,2.844 Z"
                      id="Shape"></path>
                <path d="M31.68,6.48 L31.68,2.016 L32.706,2.016 L32.814,2.853 C32.976,2.565 33.1965,2.3355 33.4755,2.1645 C33.7545,1.9935 34.083,1.908 34.461,1.908 L34.461,3.123 L34.137,3.123 C33.885,3.123 33.66,3.162 33.462,3.24 C33.264,3.318 33.1095,3.453 32.9985,3.645 C32.8875,3.837 32.832,4.104 32.832,4.446 L32.832,6.48 L31.68,6.48 Z"
                      id="Path"></path>
                <path d="M37.413,6.588 C36.963,6.588 36.564,6.492 36.216,6.3 C35.868,6.108 35.595,5.838 35.397,5.49 C35.199,5.142 35.1,4.74 35.1,4.284 C35.1,3.822 35.1975,3.411 35.3925,3.051 C35.5875,2.691 35.8575,2.4105 36.2025,2.2095 C36.5475,2.0085 36.954,1.908 37.422,1.908 C37.86,1.908 38.247,2.004 38.583,2.196 C38.919,2.388 39.1815,2.6505 39.3705,2.9835 C39.5595,3.3165 39.654,3.687 39.654,4.095 C39.654,4.161 39.6525,4.23 39.6495,4.302 C39.6465,4.374 39.642,4.449 39.636,4.527 L36.243,4.527 C36.267,4.875 36.3885,5.148 36.6075,5.346 C36.8265,5.544 37.092,5.643 37.404,5.643 C37.638,5.643 37.8345,5.5905 37.9935,5.4855 C38.1525,5.3805 38.271,5.244 38.349,5.076 L39.519,5.076 C39.435,5.358 39.2955,5.6145 39.1005,5.8455 C38.9055,6.0765 38.6655,6.258 38.3805,6.39 C38.0955,6.522 37.773,6.588 37.413,6.588 Z M37.422,2.844 C37.14,2.844 36.891,2.9235 36.675,3.0825 C36.459,3.2415 36.321,3.483 36.261,3.807 L38.484,3.807 C38.466,3.513 38.358,3.279 38.16,3.105 C37.962,2.931 37.716,2.844 37.422,2.844 Z"
                      id="Shape"></path>
                <path d="M40.626,6.48 L40.626,2.016 L41.643,2.016 L41.733,2.772 C41.871,2.508 42.0705,2.298 42.3315,2.142 C42.5925,1.986 42.9,1.908 43.254,1.908 C43.806,1.908 44.235,2.082 44.541,2.43 C44.847,2.778 45,3.288 45,3.96 L45,6.48 L43.848,6.48 L43.848,4.068 C43.848,3.684 43.77,3.39 43.614,3.186 C43.458,2.982 43.215,2.88 42.885,2.88 C42.561,2.88 42.2955,2.994 42.0885,3.222 C41.8815,3.45 41.778,3.768 41.778,4.176 L41.778,6.48 L40.626,6.48 Z"
                      id="Path"></path>
                <path d="M48.285,6.588 C47.829,6.588 47.427,6.489 47.079,6.291 C46.731,6.093 46.4565,5.817 46.2555,5.463 C46.0545,5.109 45.954,4.704 45.954,4.248 C45.954,3.792 46.0545,3.387 46.2555,3.033 C46.4565,2.679 46.731,2.403 47.079,2.205 C47.427,2.007 47.829,1.908 48.285,1.908 C48.855,1.908 49.335,2.0565 49.725,2.3535 C50.115,2.6505 50.364,3.06 50.472,3.582 L49.257,3.582 C49.197,3.366 49.0785,3.1965 48.9015,3.0735 C48.7245,2.9505 48.516,2.889 48.276,2.889 C47.958,2.889 47.688,3.009 47.466,3.249 C47.244,3.489 47.133,3.822 47.133,4.248 C47.133,4.674 47.244,5.007 47.466,5.247 C47.688,5.487 47.958,5.607 48.276,5.607 C48.516,5.607 48.7245,5.547 48.9015,5.427 C49.0785,5.307 49.197,5.136 49.257,4.914 L50.472,4.914 C50.364,5.418 50.115,5.823 49.725,6.129 C49.335,6.435 48.855,6.588 48.285,6.588 Z"
                      id="Path"></path>
                <path d="M52.119,1.323 C51.909,1.323 51.7365,1.26 51.6015,1.134 C51.4665,1.008 51.399,0.849 51.399,0.657 C51.399,0.465 51.4665,0.3075 51.6015,0.1845 C51.7365,0.0615 51.909,0 52.119,0 C52.329,0 52.5015,0.0615 52.6365,0.1845 C52.7715,0.3075 52.839,0.465 52.839,0.657 C52.839,0.849 52.7715,1.008 52.6365,1.134 C52.5015,1.26 52.329,1.323 52.119,1.323 Z M51.543,6.48 L51.543,2.016 L52.695,2.016 L52.695,6.48 L51.543,6.48 Z"
                      id="Shape"></path>
                <path d="M55.44,6.588 C55.056,6.588 54.741,6.5265 54.495,6.4035 C54.249,6.2805 54.066,6.117 53.946,5.913 C53.826,5.709 53.766,5.484 53.766,5.238 C53.766,4.824 53.928,4.488 54.252,4.23 C54.576,3.972 55.062,3.843 55.71,3.843 L56.844,3.843 L56.844,3.735 C56.844,3.429 56.757,3.204 56.583,3.06 C56.409,2.916 56.193,2.844 55.935,2.844 C55.701,2.844 55.497,2.8995 55.323,3.0105 C55.149,3.1215 55.041,3.285 54.999,3.501 L53.874,3.501 C53.904,3.177 54.0135,2.895 54.2025,2.655 C54.3915,2.415 54.636,2.2305 54.936,2.1015 C55.236,1.9725 55.572,1.908 55.944,1.908 C56.58,1.908 57.081,2.067 57.447,2.385 C57.813,2.703 57.996,3.153 57.996,3.735 L57.996,6.48 L57.015,6.48 L56.907,5.76 C56.775,6 56.5905,6.198 56.3535,6.354 C56.1165,6.51 55.812,6.588 55.44,6.588 Z M55.701,5.688 C56.031,5.688 56.2875,5.58 56.4705,5.364 C56.6535,5.148 56.769,4.881 56.817,4.563 L55.836,4.563 C55.53,4.563 55.311,4.6185 55.179,4.7295 C55.047,4.8405 54.981,4.977 54.981,5.139 C54.981,5.313 55.047,5.448 55.179,5.544 C55.311,5.64 55.485,5.688 55.701,5.688 Z"
                      id="Shape"></path>
            </g>
        </g>
    </g>
</svg>