<?xml version="1.0" encoding="UTF-8"?>
<svg width="24px" height="24px" viewBox="0 0 24 24" version="1.1" xmlns="http://www.w3.org/2000/svg" xmlns:xlink="http://www.w3.org/1999/xlink">
    <title>ic/imagen_y_sonido</title>
    <g id="ic/imagen_y_sonido" stroke="none" stroke-width="1" fill="none" fill-rule="evenodd">
        <path d="M19,4 C19.5522847,4 20,4.44771525 20,5 L20,6 L19,6 L19,5 L3,5 L3,17 L12,17 L12,18 L3,18 C2.44771525,18 2,17.5522847 2,17 L2,5 C2,4.44771525 2.44771525,4 3,4 L19,4 Z" id="Combined-Shape" fill="#000000" fill-rule="nonzero"></path>
        <path d="M12,20 L12,21 L8.5,21 C8.22385763,21 8,20.7761424 8,20.5 C8,20.2238576 8.22385763,20 8.5,20 L12,20 Z" id="Combined-Shape" fill="#000000"></path>
        <path d="M21,7 C21.5522847,7 22,7.44771525 22,8 L22,20 C22,20.5522847 21.5522847,21 21,21 L14,21 C13.4477153,21 13,20.5522847 13,20 L13,8 C13,7.44771525 13.4477153,7 14,7 L21,7 Z M21,8 L14,8 L14,20 L21,20 L21,8 Z M17.5,14 C18.8807119,14 20,15.1192881 20,16.5 C20,17.8807119 18.8807119,19 17.5,19 C16.1192881,19 15,17.8807119 15,16.5 C15,15.1192881 16.1192881,14 17.5,14 Z M17.5,15 C16.6715729,15 16,15.6715729 16,16.5 C16,17.3284271 16.6715729,18 17.5,18 C18.3284271,18 19,17.3284271 19,16.5 C19,15.6715729 18.3284271,15 17.5,15 Z M17.5,9 C18.5355339,9 19.375,9.83946609 19.375,10.875 C19.375,11.9105339 18.5355339,12.75 17.5,12.75 C16.4644661,12.75 15.625,11.9105339 15.625,10.875 C15.625,9.83946609 16.4644661,9 17.5,9 Z M17.5,10 C17.0167508,10 16.625,10.3917508 16.625,10.875 C16.625,11.3582492 17.0167508,11.75 17.5,11.75 C17.9832492,11.75 18.375,11.3582492 18.375,10.875 C18.375,10.3917508 17.9832492,10 17.5,10 Z" id="Combined-Shape" fill="#000000" fill-rule="nonzero"></path>
    </g>
</svg>