<?xml version="1.0" encoding="UTF-8"?>
<svg width="24px" height="24px" viewBox="0 0 24 24" version="1.1" xmlns="http://www.w3.org/2000/svg" xmlns:xlink="http://www.w3.org/1999/xlink">
    <title>ic/refrigeracion_liquida</title>
    <g id="ic/refrigeracion_liquida" stroke="none" stroke-width="1" fill="none" fill-rule="evenodd">
        <path d="M7,3 C8.1045695,3 9,3.8954305 9,5 L9,19 C9,20.1045695 8.1045695,21 7,21 L4,21 C2.8954305,21 2,20.1045695 2,19 L2,5 C2,3.8954305 2.8954305,3 4,3 L7,3 Z M7,4 L4,4 C3.44771525,4 3,4.44771525 3,5 L3,19 C3,19.5522847 3.44771525,20 4,20 L7,20 C7.55228475,20 8,19.5522847 8,19 L8,5 C8,4.44771525 7.55228475,4 7,4 Z" id="Rectangle" fill="#000000" fill-rule="nonzero"></path>
        <path d="M9,7 L9,11 L2,11 L2,7 L9,7 Z M8,8 L3,8 L3,10 L8,10 L8,8 Z" id="Rectangle" fill="#000000" fill-rule="nonzero"></path>
        <path d="M16,9 C19.3137085,9 22,11.6862915 22,15 C22,18.3137085 19.3137085,21 16,21 C12.6862915,21 10,18.3137085 10,15 C10,11.6862915 12.6862915,9 16,9 Z M16,10 C13.2385763,10 11,12.2385763 11,15 C11,17.7614237 13.2385763,20 16,20 C18.7614237,20 21,17.7614237 21,15 C21,12.2385763 18.7614237,10 16,10 Z" id="Rectangle-Copy" fill="#000000" fill-rule="nonzero"></path>
        <g id="Group" transform="translate(12, 11)" fill="#000000" fill-rule="nonzero">
            <path d="M1.00906234,1.2515708 C0.806971961,1.04948042 0.503836387,1.06968946 0.321955043,1.31219792 C-0.183270912,2.16097752 -0.102434759,3.3128927 0.625090617,4.06062711 C1.37282503,4.80836153 2.48432213,4.90940672 3.37351982,4.36376269 C3.61602827,4.20209038 3.63623731,3.87874577 3.43414693,3.67665539 C2.86829386,3.11080232 1.61533349,1.85784195 1.00906234,1.2515708 Z" id="Path"></path>
            <path d="M6.99093766,6.76863824 C7.19302804,6.97072862 7.49616361,6.95051958 7.67804496,6.70801112 C8.18327091,5.85923152 8.10243476,4.70731634 7.37490938,3.95958192 C6.62717497,3.21184751 5.51567787,3.11080232 4.62648018,3.65644635 C4.38397173,3.81811866 4.34355365,4.12125423 4.56585307,4.34355365 C5.13170614,4.90940672 6.38466651,6.16236709 6.99093766,6.76863824 Z" id="Path"></path>
            <path d="M6.78884727,1.00906234 C6.99093766,0.806971961 6.97072862,0.503836387 6.72822016,0.321955043 C5.87944055,-0.183270912 4.72752538,-0.102434759 3.97979096,0.625090617 C3.23205655,1.37282503 3.13101136,2.48432213 3.67665539,3.37351982 C3.83832769,3.61602827 4.16167231,3.63623731 4.36376269,3.43414693 C4.88919768,2.90871194 6.18257613,1.61533349 6.78884727,1.00906234 Z" id="Path"></path>
            <path d="M1.2515708,7.03135573 C1.04948042,7.23344612 1.06968946,7.53658169 1.31219792,7.71846303 C2.16097752,8.22368899 3.3128927,8.14285284 4.06062711,7.41532746 C4.80836153,6.66759305 4.90940672,5.55609594 4.36376269,4.66689826 C4.20209038,4.4243898 3.87874577,4.40418076 3.67665539,4.60627115 C3.15122039,5.13170614 1.85784195,6.42508459 1.2515708,7.03135573 Z" id="Path"></path>
        </g>
        <path d="M13.1787953,5.99101101 C15.013046,5.99101101 16.5,7.47796499 16.5,9.31221568 L15.5,9.31221568 C15.5,8.03024974 14.4607613,6.99101101 13.1787953,6.99101101 L8.23865525,6.99101101 L8.23865525,5.99101101 L13.1787953,5.99101101 Z" id="Path-6" fill="#000000" fill-rule="nonzero"></path>
    </g>
</svg>