<?xml version="1.0" encoding="UTF-8"?>
<svg width="24px" height="24px" viewBox="0 0 24 24" version="1.1" xmlns="http://www.w3.org/2000/svg" xmlns:xlink="http://www.w3.org/1999/xlink">
    <title>ic/telefonia</title>
    <g id="ic/telefonia" stroke="none" stroke-width="1" fill="none" fill-rule="evenodd">
        <path d="M16,3 C17.1045695,3 18,3.8954305 18,5 L18,19 C18,20.1045695 17.1045695,21 16,21 L8,21 C6.8954305,21 6,20.1045695 6,19 L6,5 C6,3.8954305 6.8954305,3 8,3 L16,3 Z M16,4 L8,4 C7.44771525,4 7,4.44771525 7,5 L7,19 C7,19.5522847 7.44771525,20 8,20 L16,20 C16.5522847,20 17,19.5522847 17,19 L17,5 C17,4.44771525 16.5522847,4 16,4 Z M14.5,18 C14.7761424,18 15,18.2238576 15,18.5 C15,18.7761424 14.7761424,19 14.5,19 L9.5,19 C9.22385763,19 9,18.7761424 9,18.5 C9,18.2238576 9.22385763,18 9.5,18 L14.5,18 Z M12.5,5 C12.7761424,5 13,5.22385763 13,5.5 C13,5.77614237 12.7761424,6 12.5,6 L11.5,6 C11.2238576,6 11,5.77614237 11,5.5 C11,5.22385763 11.2238576,5 11.5,5 L12.5,5 Z" id="Combined-Shape" fill="#000000" fill-rule="nonzero"></path>
    </g>
</svg>