<?xml version="1.0" encoding="UTF-8"?>
<svg width="24px" height="24px" viewBox="0 0 24 24" version="1.1" xmlns="http://www.w3.org/2000/svg" xmlns:xlink="http://www.w3.org/1999/xlink">
    <title>ic/gaming</title>
    <g id="ic/gaming" stroke="none" stroke-width="1" fill="none" fill-rule="evenodd">
        <path d="M19.8735892,8.27256907 C21.1190429,10.1182549 22.5237213,14.0320033 21.8042926,16.2814458 C21.5466987,17.0873028 21.0502679,17.6343414 20.3291718,17.9076536 C20.1624444,17.9710123 19.9623715,18 19.7368727,18 C18.6122963,18 16.8554062,17.2786213 15.4273859,16.5075495 C13.2816042,15.3484572 10.7190039,15.3484572 8.57322213,16.5075495 C6.85884753,17.4330842 4.67013346,18.2853214 3.67101945,17.9076536 C2.94992341,17.6343414 2.45349254,17.0868887 2.19589869,16.2814458 C1.4760531,14.0320033 2.88073153,10.1182549 4.1266021,8.27298317 C6.07898007,5.38167101 8.14723359,5.77880197 10.6481447,6.59708224 C11.5201291,6.88281776 12.480479,6.88240365 13.3520465,6.59708224 C15.8533745,5.77755964 17.921628,5.38167101 19.8735892,8.27256907 Z M13.6631655,7.54745321 C12.5889882,7.89910211 11.4105655,7.89923529 10.3371742,7.5475018 C7.47258345,6.61022815 6.34241363,6.77847746 4.95538575,8.83255235 C3.59950089,10.8407673 2.62242476,14.3332933 3.14837359,15.9768287 C3.31553414,16.4995053 3.59748895,16.810364 4.02460415,16.9722511 C4.52718497,17.162228 6.29662283,16.6001881 8.09795569,15.6277076 C10.5403293,14.3084045 13.4602788,14.3084045 15.9025066,15.6276289 C17.4236414,16.4489787 18.9335606,17 19.7368727,17 C19.8544799,17 19.935013,16.9876682 19.9747522,16.9725671 C20.4029308,16.8102774 20.6846789,16.4997057 20.8518201,15.976821 C21.3774151,14.3334398 20.4003414,10.8409225 19.0447187,8.83242374 L18.9193746,8.65058431 C17.5876128,6.76871412 16.4395993,6.63779635 13.6631655,7.54745321 Z M8,9 C8.27614237,9 8.5,9.22385763 8.5,9.5 L8.5,11 L10,11 C10.2761424,11 10.5,11.2238576 10.5,11.5 C10.5,11.7761424 10.2761424,12 10,12 L8.5,12 L8.5,13.5 C8.5,13.7761424 8.27614237,14 8,14 C7.72385763,14 7.5,13.7761424 7.5,13.5 L7.5,12 L6,12 C5.72385763,12 5.5,11.7761424 5.5,11.5 C5.5,11.2238576 5.72385763,11 6,11 L7.5,11 L7.5,9.5 C7.5,9.22385763 7.72385763,9 8,9 Z" id="Combined-Shape" fill="#000000" fill-rule="nonzero"></path>
        <circle id="Oval" fill="#000000" cx="16.5" cy="9.5" r="1"></circle>
        <circle id="Oval" fill="#000000" cx="16.5" cy="9.5" r="1"></circle>
        <circle id="Oval-Copy" fill="#000000" cx="14.5" cy="11.5" r="1"></circle>
        <circle id="Oval-Copy-3" fill="#000000" cx="18.5" cy="11.5" r="1"></circle>
        <circle id="Oval-Copy-2" fill="#000000" cx="16.5" cy="13.5" r="1"></circle>
    </g>
</svg>