<svg class="w-8 fill-primary" viewBox="0 0 24 24" version="1.1" xmlns="http://www.w3.org/2000/svg" xmlns:xlink="http://www.w3.org/1999/xlink">
    <g id="ic/payment" stroke="none" stroke-width="1" fill-rule="evenodd">
        <path d="M19,2 C20.1045695,2 21,2.8954305 21,4 L21,7 L14,7 C12.8954305,7 12,7.8954305 12,9 L12,15 C12,16.1045695 12.8954305,17 14,17 L21,17 L21,20 C21,21.1045695 20.1045695,22 19,22 L4,22 C2.8954305,22 2,21.1045695 2,20 L2,4 C2,2.8954305 2.8954305,2 4,2 L19,2 Z" id="Combined-Shape"/>
        <path d="M19,8 C20.1045695,8 21,8.8954305 21,10 L21,14 C21,15.1045695 20.1045695,16 19,16 L15,16 C13.8954305,16 13,15.1045695 13,14 L13,10 C13,8.8954305 13.8954305,8 15,8 L19,8 Z M16,11 C15.4477153,11 15,11.4477153 15,12 C15,12.5522847 15.4477153,13 16,13 C16.5522847,13 17,12.5522847 17,12 C17,11.4477153 16.5522847,11 16,11 Z" id="Combined-Shape"/>
    </g>
</svg>