<?xml version="1.0" encoding="UTF-8"?>
<svg width="82px" height="24px" viewBox="0 0 82 24" version="1.1" xmlns="http://www.w3.org/2000/svg" xmlns:xlink="http://www.w3.org/1999/xlink">
    <title>logo/mastercard</title>
    <g id="logo/mastercard" stroke="none" stroke-width="1" fill="none" fill-rule="evenodd">
        <path d="M32.5752802,15.6348608 L32.5752802,12.663597 C32.5752802,11.5270165 31.8829469,10.7827582 30.6944414,10.7827582 C30.1001886,10.7827582 29.4540109,10.9789193 29.0097637,11.6250971 C28.663597,11.0827693 28.1674248,10.7827582 27.4231665,10.7827582 C26.9269943,10.7827582 26.4308221,10.9327638 26.0384999,11.4750915 L26.0384999,10.8808388 L25,10.8808388 L25,15.6348608 L26.0384999,15.6348608 L26.0384999,13.0097637 C26.0384999,12.1674248 26.4827471,11.7693332 27.1750804,11.7693332 C27.8674137,11.7693332 28.2135804,12.2135804 28.2135804,13.0097637 L28.2135804,15.6348608 L29.2520803,15.6348608 L29.2520803,13.0097637 C29.2520803,12.1674248 29.7482525,11.7693332 30.3886608,11.7693332 C31.0809941,11.7693332 31.4271608,12.2135804 31.4271608,13.0097637 L31.4271608,15.6348608 L32.5752802,15.6348608 Z M47.979696,10.8808388 L46.2950183,10.8808388 L46.2950183,9.4442472 L45.2565184,9.4442472 L45.2565184,10.8808388 L44.316099,10.8808388 L44.316099,11.8212582 L45.2565184,11.8212582 L45.2565184,14.0021081 C45.2565184,15.092533 45.7007656,15.7329413 46.8892711,15.7329413 C47.3335183,15.7329413 47.8296904,15.5829358 48.1758571,15.3867747 L47.875846,14.4925108 C47.5758349,14.6886719 47.2296683,14.7405969 46.9815822,14.7405969 C46.48541,14.7405969 46.2892489,14.4405858 46.2892489,13.9501831 L46.2892489,11.8212582 L47.9739266,11.8212582 L47.9739266,10.8808388 L47.979696,10.8808388 Z M56.7954066,10.7769888 C56.2011539,10.7769888 55.8030622,11.0769999 55.5549761,11.4693221 L55.5549761,10.8750693 L54.5164762,10.8750693 L54.5164762,15.6290913 L55.5549761,15.6290913 L55.5549761,12.9520692 C55.5549761,12.1616554 55.9011428,11.7116387 56.5473205,11.7116387 C56.7434816,11.7116387 56.9915677,11.7635637 57.1934983,11.8097193 L57.4935094,10.8173749 C57.2858094,10.7769888 56.9915677,10.7769888 56.7954066,10.7769888 L56.7954066,10.7769888 Z M43.4737601,11.273161 C42.9775879,10.9269943 42.2852546,10.7769888 41.5409963,10.7769888 C40.3524908,10.7769888 39.562077,11.3712415 39.562077,12.3116609 C39.562077,13.1020748 40.1563297,13.5520914 41.1948297,13.6963275 L41.6910019,13.7482525 C42.2333296,13.8463331 42.5333407,13.9963386 42.5333407,14.2444247 C42.5333407,14.5905914 42.1352491,14.8386775 41.4429158,14.8386775 C40.7505825,14.8386775 40.2024853,14.5905914 39.8563187,14.3425053 L39.3601465,15.1329191 C39.9024742,15.5310108 40.6467325,15.7271719 41.3909908,15.7271719 C42.7756574,15.7271719 43.5718407,15.0809941 43.5718407,14.1924997 C43.5718407,13.3501609 42.9256629,12.9059137 41.939088,12.7559081 L41.4429158,12.7039831 C40.9986686,12.6520581 40.6525019,12.5539776 40.6525019,12.2597359 C40.6525019,11.9135693 40.9986686,11.7174082 41.5467658,11.7174082 C42.1410185,11.7174082 42.7352713,11.9654943 43.0352824,12.1154998 L43.4737601,11.273161 L43.4737601,11.273161 Z M71.1036281,10.7769888 C70.5093753,10.7769888 70.1112837,11.0769999 69.8631976,11.4693221 L69.8631976,10.8750693 L68.8246977,10.8750693 L68.8246977,15.6290913 L69.8631976,15.6290913 L69.8631976,12.9520692 C69.8631976,12.1616554 70.2093643,11.7116387 70.855542,11.7116387 C71.0517031,11.7116387 71.2997892,11.7635637 71.5017197,11.8097193 L71.8017308,10.8289138 C71.5998003,10.7769888 71.3055586,10.7769888 71.1036281,10.7769888 L71.1036281,10.7769888 Z M57.8339066,13.2578498 C57.8339066,14.6944414 58.826251,15.7329413 60.3609231,15.7329413 C61.0532564,15.7329413 61.5494286,15.5829358 62.0456008,15.1906136 L61.5494286,14.3482747 C61.151337,14.6482858 60.7590148,14.7925219 60.3089981,14.7925219 C59.4666593,14.7925219 58.8724065,14.1982692 58.8724065,13.2578498 C58.8724065,12.3635859 59.4666593,11.7693332 60.3089981,11.7231776 C60.7532453,11.7231776 61.151337,11.8731832 61.5494286,12.1674248 L62.0456008,11.325086 C61.5494286,10.9269943 61.0532564,10.7827344 60.3609231,10.7827344 C58.826251,10.7769888 57.8339066,11.8212582 57.8339066,13.2578498 L57.8339066,13.2578498 L57.8339066,13.2578498 Z M67.4400311,13.2578498 L67.4400311,10.8808388 L66.4015311,10.8808388 L66.4015311,11.4750915 C66.0553645,11.0308443 65.5591923,10.7827582 64.9130145,10.7827582 C63.5745035,10.7827582 62.5360036,11.8212582 62.5360036,13.2578498 C62.5360036,14.6944414 63.5745035,15.7329413 64.9130145,15.7329413 C65.6053478,15.7329413 66.10152,15.4848552 66.4015311,15.040608 L66.4015311,15.6348608 L67.4400311,15.6348608 L67.4400311,13.2578498 L67.4400311,13.2578498 Z M63.6264285,13.2578498 C63.6264285,12.4155109 64.1687562,11.7231776 65.0630201,11.7231776 C65.9053589,11.7231776 66.4996117,12.3693554 66.4996117,13.2578498 C66.4996117,14.1001886 65.9053589,14.7925219 65.0630201,14.7925219 C64.1745257,14.7405969 63.6264285,14.0944192 63.6264285,13.2578498 L63.6264285,13.2578498 Z M51.1990458,10.7769888 C49.8143792,10.7769888 48.8220348,11.7693332 48.8220348,13.2520803 C48.8220348,14.7405969 49.8143792,15.7271719 51.2509708,15.7271719 C51.9433041,15.7271719 52.6356374,15.5310108 53.1837346,15.0809941 L52.6875624,14.3367358 C52.2894708,14.6367469 51.7932986,14.832908 51.3028958,14.832908 C50.6567181,14.832908 50.0163098,14.5328969 49.8663042,13.6963275 L53.3798957,13.6963275 C53.3798957,13.546322 53.3798957,13.4482414 53.3798957,13.2982359 C53.4260513,11.7693332 52.5317874,10.7769888 51.1990458,10.7769888 L51.1990458,10.7769888 L51.1990458,10.7769888 Z M51.1990458,11.6712526 C51.8452236,11.6712526 52.2894708,12.0693443 52.3875513,12.8078331 L49.9124598,12.8078331 C50.0105403,12.1674248 50.4547875,11.6712526 51.1990458,11.6712526 L51.1990458,11.6712526 Z M77,13.2578498 L77,9 L75.9615001,9 L75.9615001,11.4750915 C75.6153334,11.0308443 75.1191612,10.7827582 74.4729835,10.7827582 C73.1344724,10.7827582 72.0959725,11.8212582 72.0959725,13.2578498 C72.0959725,14.6944414 73.1344724,15.7329413 74.4729835,15.7329413 C75.1653168,15.7329413 75.661489,15.4848552 75.9615001,15.040608 L75.9615001,15.6348608 L77,15.6348608 L77,13.2578498 L77,13.2578498 Z M73.1863974,13.2578498 C73.1863974,12.4155109 73.7287252,11.7231776 74.622989,11.7231776 C75.4653279,11.7231776 76.0595806,12.3693554 76.0595806,13.2578498 C76.0595806,14.1001886 75.4653279,14.7925219 74.622989,14.7925219 C73.7287252,14.7405969 73.1863974,14.0944192 73.1863974,13.2578498 L73.1863974,13.2578498 Z M38.4197271,13.2578498 L38.4197271,10.8808388 L37.3812271,10.8808388 L37.3812271,11.4750915 C37.0350605,11.0308443 36.5388883,10.7827582 35.8927105,10.7827582 C34.5541995,10.7827582 33.5156995,11.8212582 33.5156995,13.2578498 C33.5156995,14.6944414 34.5541995,15.7329413 35.8927105,15.7329413 C36.5850438,15.7329413 37.081216,15.4848552 37.3812271,15.040608 L37.3812271,15.6348608 L38.4197271,15.6348608 L38.4197271,13.2578498 L38.4197271,13.2578498 Z M34.5599689,13.2578498 C34.5599689,12.4155109 35.1022967,11.7231776 35.9965605,11.7231776 C36.8388994,11.7231776 37.4331521,12.3693554 37.4331521,13.2578498 C37.4331521,14.1001886 36.8388994,14.7925219 35.9965605,14.7925219 C35.1022967,14.7405969 34.5599689,14.0944192 34.5599689,13.2578498 Z" id="XMLID_1775_" fill="#000000" fill-rule="nonzero"></path>
        <rect id="rect19" fill="#FF5A00" fill-rule="nonzero" x="10.243279" y="7.24741267" width="5.25048544" height="9.43300971"></rect>
        <path d="M10.5927935,11.9639175 C10.5927935,10.0474127 11.4937644,8.3464418 12.8762887,7.24741267 C11.8588129,6.44741267 10.5753178,5.96391753 9.17531779,5.96391753 C5.85881293,5.96391753 3.17531779,8.64741267 3.17531779,11.9639175 C3.17531779,15.2804224 5.85881293,17.9639175 9.17531779,17.9639175 C10.5753178,17.9639175 11.8588129,17.4804224 12.8762887,16.6804224 C11.4918226,15.5969272 10.5927935,13.8804224 10.5927935,11.9639175 Z" id="XMLID_330_" fill="#EB001B" fill-rule="nonzero"></path>
        <path d="M22.5772595,11.9639175 C22.5772595,15.2804224 19.8937644,17.9639175 16.5772595,17.9639175 C15.1772595,17.9639175 13.8937644,17.4804224 12.8762887,16.6804224 C14.2762887,15.5794515 15.1597838,13.8804224 15.1597838,11.9639175 C15.1597838,10.0474127 14.2588129,8.3464418 12.8762887,7.24741267 C13.8918226,6.44741267 15.1753178,5.96391753 16.5753178,5.96391753 C19.8937644,5.96391753 22.5772595,8.6648884 22.5772595,11.9639175 Z" id="path22" fill="#F79E1B" fill-rule="nonzero"></path>
    </g>
</svg>