<svg class="w-5 h-5 fill-white" viewBox="0 0 24 24" version="1.1" xmlns="http://www.w3.org/2000/svg" xmlns:xlink="http://www.w3.org/1999/xlink">
    <g id="ic/configurar_pc" stroke="none" stroke-width="1" fill-rule="evenodd">
        <path d="M20,2 C20.5522847,2 21,2.44771525 21,3 L21,21 C21,21.5522847 20.5522847,22 20,22 L11,22 C10.4477153,22 10,21.5522847 10,21 L20,21 L20,3 L11,3 L11,6 L10,6 L10,3 C10,2.44771525 10.4477153,2 11,2 L20,2 Z M10.073799,8.04659678 L10.2488456,9.44288518 L10.4563525,9.54978894 C10.5334151,9.59161618 10.6096916,9.63574541 10.6854541,9.68237925 L10.8788121,9.8077512 L12.2630826,9.25217804 C12.6471099,9.16681093 13.0336487,9.33811767 13.2136714,9.63335666 L13.2657435,9.73617765 L14.2051427,11.4679423 C14.453156,11.8182379 14.4198595,12.2961894 14.074484,12.6709674 L12.9546516,13.5742917 L12.9624211,13.8326997 C12.9627233,13.9225889 12.9605816,14.0128479 12.9559639,14.1036872 L12.937215,14.3424928 L14.0052428,15.2151575 L14.0717298,15.2806857 C14.3443114,15.6048498 14.3540123,16.0758146 14.1311512,16.3752843 L13.0964397,18.13546 C12.9199594,18.5278283 12.4965738,18.7511137 11.9943217,18.6398392 L10.7141002,18.1350405 L10.6866179,18.1552812 C10.6654855,18.1695774 10.6433259,18.1842116 10.6186684,18.2001985 L10.535732,18.2532322 C10.4714042,18.2938657 10.4714042,18.2938657 10.4142112,18.3306503 C10.3332851,18.3833216 10.2482429,18.432915 10.1641751,18.4770446 L10.0582252,18.529 L9.79912544,20.0278014 C9.67385838,20.3965402 9.3335576,20.6470722 8.99368836,20.6593321 L8.89195601,20.6557419 L6.90727666,20.6684571 C6.4733134,20.7197307 6.06917686,20.453649 5.9260175,19.9532973 L5.75078838,18.5557488 L5.54346406,18.4501051 C5.46640139,18.4082779 5.3901249,18.3641487 5.31436244,18.3175148 L5.12082189,18.1908828 L3.74506298,18.7525248 C3.36103568,18.8378919 2.97449689,18.6665852 2.79490436,18.3721336 L2.74299218,18.2696053 L1.79467388,16.5319518 C1.54666053,16.1816562 1.57995703,15.7037046 1.9253325,15.3289267 L3.04498238,14.4243423 L3.03915317,14.1646193 C3.03947487,14.0751978 3.04220772,13.9855468 3.04736992,13.8955772 L3.06724913,13.6577751 L1.93792046,12.7277589 C1.68371448,12.4344325 1.64880478,12.0149684 1.81334098,11.7118217 L1.86866537,11.6246097 L2.90337681,9.86443409 C3.07985709,9.47206575 3.50324278,9.24878033 4.00549487,9.36005484 L5.28553374,9.86359348 L5.31319863,9.84461289 C5.33433105,9.83031669 5.35649068,9.81568253 5.38114814,9.79969561 L5.46408457,9.74666183 C5.52841238,9.70602835 5.52841238,9.70602835 5.58560537,9.66924377 C5.70699444,9.59023685 5.83764486,9.51815524 5.96037619,9.46105111 L5.94132917,9.46972248 L6.20069109,7.97209266 C6.32595816,7.60335388 6.66625894,7.35282184 7.00612817,7.34056194 L7.10786053,7.34415221 L9.09253987,7.331437 C9.52650313,7.28016337 9.93063968,7.54624507 10.073799,8.04659678 Z M9.10833634,8.32830514 L7.14528931,8.34040234 L6.92410122,9.65662938 C6.88048494,9.91473647 6.73335112,10.1428873 6.51255571,10.2927883 L6.39615776,10.3609944 C6.30231079,10.4048251 6.21253421,10.4543561 6.13109853,10.507359 C6.06308373,10.5511026 6.06308373,10.5511026 5.99904981,10.5915359 C5.92005204,10.6415564 5.87448137,10.6714444 5.82866646,10.7040595 C5.57038634,10.8852901 5.23912242,10.9249691 4.95515018,10.8083465 L3.78035066,10.338647 L2.74386028,12.103901 L3.73170079,12.9107769 C3.94710516,13.0873419 4.068535,13.3504477 4.07020569,13.6226438 L4.06351434,13.73963 C4.03985992,13.9535172 4.03338507,14.1683663 4.04361814,14.3732138 C4.06476334,14.6840485 3.93388487,14.9876459 3.68854951,15.1911 L2.65125599,16.0202964 L3.59048251,17.7415083 L4.78483444,17.2488039 C5.04533284,17.1469616 5.33428576,17.1655189 5.5689599,17.2926022 L5.66597014,17.3536764 C5.83725974,17.4719511 6.01775148,17.576158 6.19127805,17.6587447 C6.48837531,17.7881957 6.69401518,18.0640199 6.73801999,18.3907384 L6.89129763,19.6703288 L8.85434467,19.6582316 L9.07571531,18.3432647 C9.11933159,18.0851576 9.26646542,17.8570068 9.48726083,17.7071058 L9.60365877,17.6388997 C9.69750575,17.595069 9.78728232,17.545538 9.86871801,17.492535 C9.9367328,17.4487915 9.9367328,17.4487915 10.0007667,17.4083582 C10.0797645,17.3583376 10.1253352,17.3284496 10.1711501,17.2958346 C10.4294302,17.114604 10.7606941,17.074925 11.0446664,17.1915476 L12.2184173,17.6594869 L13.2562737,15.8938669 L12.2731132,15.0920024 C12.0577088,14.9154374 11.936279,14.6523316 11.9343708,14.3823499 L11.9409452,14.2664548 C11.963261,14.0516062 11.9682495,13.8359111 11.9561984,13.6266803 C11.9350532,13.3158456 12.0659317,13.0122481 12.311267,12.808794 L13.349244,11.9788376 L12.4160797,10.2611257 L11.2149821,10.7510901 C10.9544837,10.8529325 10.6655308,10.8343752 10.4308566,10.7072919 L10.3338464,10.6462177 C10.1625568,10.527943 9.98206506,10.4237361 9.80853849,10.3411493 C9.51144122,10.2116983 9.30580136,9.93587414 9.26179654,9.60915573 L9.10833634,8.32830514 Z M8,12 C9.1045695,12 10,12.8954305 10,14 C10,15.1045695 9.1045695,16 8,16 C6.8954305,16 6,15.1045695 6,14 C6,12.8954305 6.8954305,12 8,12 Z M8,13 C7.44771525,13 7,13.4477153 7,14 C7,14.5522847 7.44771525,15 8,15 C8.55228475,15 9,14.5522847 9,14 C9,13.4477153 8.55228475,13 8,13 Z M17.5,7 C17.7761424,7 18,7.22385763 18,7.5 C18,7.77614237 17.7761424,8 17.5,8 C17.2238576,8 17,7.77614237 17,7.5 C17,7.22385763 17.2238576,7 17.5,7 Z M17.5,5 C17.7761424,5 18,5.22385763 18,5.5 C18,5.77614237 17.7761424,6 17.5,6 C17.2238576,6 17,5.77614237 17,5.5 C17,5.22385763 17.2238576,5 17.5,5 Z" id="Combined-Shape"/>
    </g>
</svg>