<?xml version="1.0" encoding="UTF-8"?>
<svg width="24px" height="24px" viewBox="0 0 24 24" version="1.1" xmlns="http://www.w3.org/2000/svg" xmlns:xlink="http://www.w3.org/1999/xlink">
    <title>ic/perifericos</title>
    <g id="ic/perifericos" stroke="none" stroke-width="1" fill="none" fill-rule="evenodd">
        <path d="M19.11527,1.33962469 C19.3914124,1.33962469 19.61527,1.56348232 19.61527,1.83962469 C19.61527,2.19682803 19.5403516,2.55006034 19.395353,2.87651036 C18.8226968,4.16578859 17.3133008,4.74672557 16.0240226,4.17406943 L15.2238694,3.81866699 C14.9762654,3.70868922 14.7083477,3.65186553 14.4374181,3.65186553 C13.5621882,3.65186553 12.8225084,4.23222451 12.5822177,5.02910354 C15.623047,5.32100595 18,7.88291941 18,11 L18,15 C18,18.3137085 15.3137085,21 12,21 C8.6862915,21 6,18.3137085 6,15 L6,11 C6,7.83522601 8.45024739,5.24273797 11.5571856,5.0160924 C11.8229746,3.66780122 13.0115541,2.65186553 14.4374181,2.65186553 C14.8481883,2.65186553 15.2543919,2.73801881 15.6297969,2.90476171 L16.4299501,3.26016414 C17.2144923,3.60863272 18.1329791,3.25512514 18.4814477,2.47058287 C18.5696812,2.27193386 18.61527,2.05698749 18.61527,1.83962469 C18.61527,1.56348232 18.8391276,1.33962469 19.11527,1.33962469 Z M17,11 L7,11 L7,15 C7,17.7614237 9.23857625,20 12,20 C14.7614237,20 17,17.7614237 17,15 L17,11 Z M7.10005628,9.99981203 L11.5,9.99962469 L11.5003002,6.02465783 C9.30731168,6.24225792 7.53109461,7.87677843 7.10005628,9.99981203 Z M12.500702,6.02475737 L12.5,9.99962469 L16.8999437,9.99981203 C16.4689711,7.87710183 14.6932294,6.2427559 12.500702,6.02475737 Z" id="Combined-Shape" fill="#000000" fill-rule="nonzero"></path>
    </g>
</svg>