<svg class="w-8 h-8" viewBox="0 0 24 24" version="1.1" xmlns="http://www.w3.org/2000/svg" xmlns:xlink="http://www.w3.org/1999/xlink">
    <g id="ic/social/social_youtube" stroke="none" stroke-width="1" fill="none" fill-rule="evenodd">
        <path d="M12.2382549,4.30063099 C13.4650925,4.30567893 19.0705501,4.35111036 20.5949472,4.75999321 C21.5420912,5.01353289 22.2864848,5.75785489 22.5399806,6.70500663 C22.9551984,8.25923295 22.9956428,11.3454383 22.9995768,11.9104416 L22.999621,12.0902749 C22.9959569,12.6552807 22.9568732,15.7415 22.5399806,17.2957403 C22.2864848,18.2428843 21.5420912,18.987201 20.5949472,19.2406967 C19.9089685,19.4247045 18.396575,19.5351092 16.8286552,19.6013519 L16.3050162,19.6218376 C14.5597475,19.6849404 12.8516737,19.697561 12.2382549,19.7000851 L11.7616711,19.7000851 C11.1482601,19.697561 9.44020673,19.6849404 7.69494877,19.6218376 L7.17131269,19.6013519 C5.60340065,19.5351092 4.09100535,19.4247045 3.40499893,19.2406967 C2.45785489,18.987201 1.71353289,18.2428843 1.45999321,17.2957403 C1.05749915,15.7950945 1.00718739,12.8663018 1.00089842,12.1575513 L1.00089842,11.8431656 C1.00718739,11.1344182 1.05749915,8.20563894 1.45999321,6.70500663 C1.71353289,5.75785489 2.45785489,5.01353289 3.40499893,4.75999321 C4.92945764,4.35111036 10.5348491,4.30567893 11.7616711,4.30063099 Z M9.7978901,8.70100875 L9.7978901,15.3002695 L15.5134039,12.0006661 L9.7978901,8.70100875 Z" id="Combined-Shape" fill="#FF0000" fill-rule="nonzero"/>
    </g>
</svg>