<svg class="w-8 fill-primary" viewBox="0 0 24 24" version="1.1" xmlns="http://www.w3.org/2000/svg" xmlns:xlink="http://www.w3.org/1999/xlink">
    <g id="ic/phone" stroke="none" stroke-width="1" fill-rule="evenodd">
        <g id="noun-phone-1172785" transform="translate(2, 2)" fill-rule="nonzero">
            <path d="M20,10.0024154 C20,10.1004782 20,10.1985413 20,10.2966041 C20,10.4590801 19.868155,10.5907928 19.7055157,10.5907928 L19.1165472,10.5907928 C18.953908,10.5907928 18.822063,10.4590801 18.822063,10.2966041 C18.822063,10.1985413 18.822063,10.1004782 18.822063,10.0024154 C18.822063,5.12813777 14.86671,1.17675476 9.98753523,1.17675476 C9.88937391,1.17675476 9.79121229,1.17675476 9.69305097,1.17675476 C9.53041173,1.17675476 9.39856671,1.04504207 9.39856671,0.882566067 L9.39856671,0.294188689 C9.39856671,0.131712689 9.53041173,0 9.69305097,0 C9.79121229,0 9.88937391,0 9.98753523,0 C15.5172667,0 20,4.47823407 20,10.0024154 Z M16.4661889,10.0024154 C16.4661889,10.1004782 16.4661889,10.1985413 16.4661889,10.2966041 C16.4661889,10.4590801 16.3343439,10.5907928 16.1717046,10.5907928 L15.5827361,10.5907928 C15.4200969,10.5907928 15.2882519,10.4590801 15.2882519,10.2966041 C15.2882519,10.1985413 15.2882519,10.1004782 15.2882519,10.0024154 C15.2882519,7.07784889 12.91504,4.70701902 9.98753523,4.70701902 C9.88937391,4.70701902 9.79121229,4.70701902 9.69305097,4.70701902 C9.53041173,4.70701902 9.39856671,4.57530633 9.39856671,4.41283033 L9.39856671,3.82445296 C9.39856671,3.66197696 9.53041173,3.53026427 9.69305097,3.53026427 C9.79121229,3.53026427 9.88937391,3.53026427 9.98753523,3.53026427 C13.5655967,3.53026427 16.4661889,6.42794519 16.4661889,10.0024154 Z M14.7710548,19.3894599 C13.0049523,21.1537901 7.34292848,18.8344971 4.25486996,15.7495383 C1.16653227,12.6643 -1.15505529,7.00848214 0.611291328,5.24390838 L2.16543818,3.6913211 C2.62545145,3.23176983 3.37127966,3.23176983 3.83129293,3.6913211 C3.85897504,3.71897572 3.88526012,3.74799184 3.9100501,3.77826121 L6.90853563,7.43951535 C7.29173828,7.90741922 7.25769089,8.58927505 6.82977817,9.01675799 L5.17901545,10.6658642 C5.0842619,10.7605223 5.06542639,10.9071524 5.13318487,11.0226444 C5.64427731,11.8937863 6.19688115,12.6249458 6.78974157,13.2172109 C7.38260169,13.8094762 8.11449579,14.3615254 8.98651285,14.8721049 C9.1021209,14.9397954 9.24889803,14.9209788 9.34365158,14.8263203 L10.9944146,13.1772144 C11.422327,12.7497312 12.1048679,12.715718 12.5732419,13.098536 L16.2381745,16.094012 C16.7416839,16.5055476 16.8159084,17.2469287 16.4039591,17.7499328 C16.3791691,17.7802022 16.352884,17.8092183 16.3252019,17.8368729 L14.7710548,19.3894599 Z" id="Shape"/>
        </g>
    </g>
</svg>